<svg xmlns="http://www.w3.org/2000/svg" xmlns:xlink="http://www.w3.org/1999/xlink" width="500" zoomAndPan="magnify" viewBox="0 0 375 374.999991" height="500" preserveAspectRatio="xMidYMid meet" version="1.0"><defs><g/><clipPath id="ca56a4e36a"><path d="M 132 67.578125 L 216 67.578125 L 216 151 L 132 151 Z M 132 67.578125 " clip-rule="nonzero"/></clipPath><clipPath id="4e0ccb3800"><path d="M 210 152 L 235.65625 152 L 235.65625 177.828125 L 210 177.828125 Z M 210 152 " clip-rule="nonzero"/></clipPath><clipPath id="89d0e83a7c"><path d="M 112.65625 120 L 146 120 L 146 146 L 112.65625 146 Z M 112.65625 120 " clip-rule="nonzero"/></clipPath><clipPath id="2225d82000"><rect x="0" width="375" y="0" height="83"/></clipPath></defs><g clip-path="url(#ca56a4e36a)"><path fill="#f8d26b" d="M 201.359375 139.804688 C 202.050781 139.203125 202.644531 138.644531 203.199219 138.082031 C 204.191406 137.074219 205.113281 136.042969 205.929688 135.035156 C 209.035156 131.222656 211.359375 127.03125 212.90625 122.644531 C 213.378906 121.320312 213.78125 119.96875 214.105469 118.613281 C 214.132812 118.488281 214.167969 118.371094 214.195312 118.253906 C 214.484375 116.996094 214.71875 115.722656 214.886719 114.449219 C 215.769531 107.949219 215.085938 101.308594 212.867188 95.097656 C 212.355469 93.667969 211.757812 92.257812 211.089844 90.878906 C 209.097656 86.792969 206.386719 82.960938 202.976562 79.578125 L 202.96875 79.578125 C 195.179688 71.832031 184.839844 67.578125 173.859375 67.578125 L 173.691406 67.578125 C 162.648438 67.621094 152.273438 71.957031 144.492188 79.804688 C 141.21875 83.097656 138.621094 86.8125 136.691406 90.769531 C 136.011719 92.144531 135.417969 93.550781 134.914062 94.980469 C 132.683594 101.199219 132 107.84375 132.835938 114.324219 C 133.003906 115.605469 133.230469 116.886719 133.523438 118.144531 C 133.542969 118.261719 133.570312 118.378906 133.605469 118.496094 C 133.917969 119.859375 134.308594 121.207031 134.773438 122.535156 C 136.765625 128.304688 140.070312 133.710938 144.683594 138.292969 C 146.207031 139.785156 147.832031 141.167969 149.519531 142.390625 C 149.59375 142.449219 149.671875 142.503906 149.746094 142.558594 C 149.996094 142.738281 150.238281 142.910156 150.488281 143.070312 C 151.609375 143.839844 152.75 144.542969 153.917969 145.1875 C 166.320312 152.035156 181.25 152.0625 193.660156 145.242188 C 194.613281 144.722656 195.554688 144.15625 196.480469 143.546875 C 196.488281 143.546875 196.488281 143.539062 196.496094 143.539062 L 196.730469 143.394531 C 196.863281 143.3125 197 143.230469 197.125 143.140625 C 197.402344 142.945312 197.628906 142.785156 197.851562 142.632812 C 197.941406 142.566406 198.03125 142.496094 198.121094 142.433594 C 198.828125 141.914062 199.519531 141.390625 200.1875 140.835938 C 200.519531 140.558594 200.847656 140.289062 201.148438 139.984375 C 201.21875 139.921875 201.289062 139.867188 201.359375 139.804688 Z M 200.507812 136.058594 C 200.457031 136.105469 200.390625 136.160156 200.320312 136.222656 C 199.882812 136.652344 199.441406 137.066406 198.992188 137.453125 C 198.734375 137.6875 198.472656 137.910156 198.210938 138.125 C 197.035156 139.105469 195.796875 140.019531 194.523438 140.84375 L 194.515625 140.84375 C 194.183594 141.058594 193.851562 141.265625 193.519531 141.472656 L 193.515625 141.472656 C 192.566406 142.066406 191.535156 142.632812 190.476562 143.140625 L 190.445312 143.160156 C 190.445312 143.160156 190.402344 143.179688 190.382812 143.195312 C 189.882812 143.4375 189.371094 143.679688 188.839844 143.878906 C 188.480469 144.039062 188.121094 144.191406 187.753906 144.335938 C 187.386719 144.480469 187.019531 144.625 186.648438 144.757812 C 184.40625 145.574219 182.035156 146.175781 179.585938 146.535156 C 179.351562 146.570312 179.109375 146.605469 178.871094 146.632812 C 178.636719 146.667969 178.394531 146.695312 178.160156 146.722656 C 177.15625 146.847656 176.203125 146.914062 175.28125 146.945312 C 175.109375 146.949219 174.929688 146.957031 174.757812 146.957031 L 174.742188 146.957031 C 174.652344 146.964844 174.550781 146.964844 174.445312 146.964844 L 174.113281 146.964844 C 174.039062 146.964844 173.960938 146.964844 173.878906 146.964844 C 173.59375 146.964844 173.304688 146.964844 173.015625 146.949219 C 172.847656 146.949219 172.683594 146.945312 172.515625 146.9375 C 172.023438 146.921875 171.546875 146.886719 171.070312 146.855469 C 170.28125 146.792969 169.5625 146.722656 168.863281 146.632812 C 168.617188 146.597656 168.359375 146.5625 168.109375 146.527344 L 166.277344 146.195312 C 165.972656 146.140625 165.664062 146.078125 165.351562 146.011719 C 164.761719 145.878906 164.167969 145.726562 163.566406 145.546875 C 163.253906 145.464844 162.945312 145.367188 162.632812 145.261719 C 162.5 145.226562 162.320312 145.171875 162.128906 145.097656 C 161.671875 144.972656 161.230469 144.8125 160.773438 144.640625 C 160.746094 144.625 160.710938 144.621094 160.683594 144.605469 C 160.640625 144.59375 160.59375 144.570312 160.550781 144.558594 C 160.082031 144.398438 159.542969 144.183594 158.996094 143.941406 L 158.890625 143.898438 C 158.84375 143.878906 158.792969 143.859375 158.753906 143.839844 C 158.398438 143.691406 158.039062 143.539062 157.6875 143.359375 L 157.679688 143.359375 L 157.402344 143.230469 L 157.308594 143.1875 C 157.308594 143.1875 157.246094 143.160156 157.21875 143.144531 C 157.164062 143.117188 157.105469 143.089844 157.058594 143.0625 C 156.921875 143 156.789062 142.933594 156.664062 142.871094 C 156.601562 142.835938 156.546875 142.808594 156.484375 142.78125 C 156.351562 142.703125 156.214844 142.632812 156.082031 142.558594 C 156.078125 142.558594 156.070312 142.558594 156.070312 142.550781 C 155.9375 142.484375 155.8125 142.414062 155.6875 142.34375 C 155.453125 142.21875 155.199219 142.082031 154.941406 141.9375 C 154.8125 141.859375 154.679688 141.785156 154.546875 141.699219 C 154.417969 141.625 154.285156 141.546875 154.160156 141.464844 C 154.113281 141.4375 154.058594 141.402344 154 141.367188 C 153.710938 141.203125 153.394531 141.003906 153.074219 140.792969 C 152.949219 140.703125 152.832031 140.621094 152.707031 140.53125 C 152.695312 140.523438 152.679688 140.511719 152.667969 140.503906 C 152.160156 140.179688 151.65625 139.828125 151.136719 139.445312 C 150.621094 139.058594 150.085938 138.644531 149.554688 138.203125 L 149.546875 138.203125 C 148.773438 137.558594 148.054688 136.902344 147.347656 136.203125 C 147.320312 136.183594 147.292969 136.152344 147.265625 136.132812 C 147.25 136.121094 147.238281 136.113281 147.230469 136.105469 L 147.148438 136.015625 L 147.09375 135.96875 L 146.996094 135.871094 C 146.800781 135.675781 146.609375 135.484375 146.429688 135.289062 C 142.726562 131.457031 140.003906 127.03125 138.246094 122.320312 C 137.769531 121.046875 137.359375 119.761719 137.035156 118.460938 C 137.007812 118.386719 136.992188 118.308594 136.972656 118.234375 C 136.640625 116.898438 136.378906 115.550781 136.191406 114.195312 C 135.777344 111.214844 135.722656 108.191406 136.019531 105.195312 C 136.144531 103.9375 136.332031 102.691406 136.578125 101.449219 C 136.738281 100.632812 136.925781 99.816406 137.144531 99.007812 C 137.292969 98.433594 137.464844 97.851562 137.644531 97.285156 C 137.859375 96.613281 138.09375 95.941406 138.351562 95.285156 C 138.425781 95.078125 138.507812 94.871094 138.589844 94.664062 C 138.820312 94.101562 139.0625 93.542969 139.3125 92.988281 C 139.558594 92.449219 139.824219 91.917969 140.097656 91.382812 C 140.3125 90.960938 140.542969 90.546875 140.777344 90.132812 C 140.867188 89.980469 140.949219 89.828125 141.039062 89.675781 C 142.609375 86.992188 144.546875 84.453125 146.835938 82.144531 C 146.988281 81.992188 147.132812 81.847656 147.277344 81.707031 C 147.355469 81.632812 147.4375 81.554688 147.519531 81.480469 C 147.527344 81.480469 147.535156 81.472656 147.542969 81.464844 C 147.824219 81.175781 148.199219 80.832031 148.566406 80.503906 C 149.125 80.007812 149.691406 79.53125 150.273438 79.074219 C 150.855469 78.609375 151.449219 78.175781 152.050781 77.753906 C 152.535156 77.414062 153.027344 77.082031 153.53125 76.769531 C 154.269531 76.300781 155.03125 75.855469 155.800781 75.449219 C 156.257812 75.1875 156.769531 74.9375 157.273438 74.695312 C 157.832031 74.417969 158.371094 74.164062 158.917969 73.949219 L 158.925781 73.949219 C 158.925781 73.949219 158.988281 73.921875 159.023438 73.90625 C 159.152344 73.84375 159.285156 73.78125 159.421875 73.734375 C 159.542969 73.6875 159.664062 73.636719 159.789062 73.589844 C 159.832031 73.574219 159.878906 73.554688 159.921875 73.539062 C 160.386719 73.355469 160.792969 73.207031 161.1875 73.0625 L 161.484375 72.960938 C 162.011719 72.78125 162.507812 72.621094 162.980469 72.488281 C 163.492188 72.328125 164.066406 72.171875 164.632812 72.046875 C 164.902344 71.964844 165.316406 71.859375 165.753906 71.785156 C 165.84375 71.761719 165.933594 71.734375 166.027344 71.714844 C 166.125 71.695312 166.230469 71.671875 166.332031 71.644531 C 166.339844 71.652344 166.339844 71.644531 166.347656 71.644531 C 166.449219 71.625 166.5625 71.605469 166.679688 71.582031 L 166.691406 71.582031 C 166.808594 71.5625 166.929688 71.542969 167.050781 71.519531 C 167.550781 71.425781 168 71.339844 168.449219 71.292969 C 168.835938 71.238281 169.355469 71.160156 169.847656 71.140625 C 175.582031 70.503906 181.308594 71.195312 186.625 73.089844 C 187.773438 73.503906 188.902344 73.96875 190.007812 74.496094 C 193.886719 76.3125 197.484375 78.8125 200.617188 81.921875 L 200.625 81.921875 C 200.851562 82.144531 201.074219 82.371094 201.289062 82.601562 C 201.515625 82.84375 201.75 83.09375 201.980469 83.339844 C 202.304688 83.699219 202.628906 84.074219 202.941406 84.441406 C 203.253906 84.8125 203.558594 85.1875 203.855469 85.566406 C 204.25 86.074219 204.628906 86.589844 204.996094 87.109375 C 205.992188 88.507812 206.875 89.964844 207.660156 91.480469 C 208.308594 92.746094 208.890625 94.046875 209.394531 95.382812 C 211.007812 99.609375 211.851562 104.132812 211.871094 108.785156 C 211.878906 110.652344 211.753906 112.5 211.488281 114.3125 C 211.304688 115.675781 211.035156 117.023438 210.695312 118.34375 C 210.679688 118.421875 210.660156 118.496094 210.640625 118.574219 C 210.300781 119.878906 209.890625 121.167969 209.414062 122.425781 L 209.40625 122.425781 C 208.773438 124.121094 208.011719 125.75 207.132812 127.328125 C 206.84375 127.859375 206.53125 128.378906 206.210938 128.898438 C 206.03125 129.195312 205.847656 129.492188 205.652344 129.785156 C 205.480469 130.046875 205.300781 130.308594 205.121094 130.566406 C 204.941406 130.828125 204.761719 131.085938 204.574219 131.339844 C 204.546875 131.382812 204.511719 131.417969 204.492188 131.457031 C 204.199219 131.84375 203.910156 132.226562 203.613281 132.597656 C 203.523438 132.710938 203.433594 132.820312 203.34375 132.929688 C 202.5625 133.890625 201.71875 134.832031 200.824219 135.730469 L 200.507812 136.050781 Z M 200.507812 136.058594 " fill-opacity="1" fill-rule="nonzero"/></g><g clip-path="url(#4e0ccb3800)"><path fill="#f8d26b" d="M 234.519531 171.621094 L 215.984375 153.222656 C 215.5625 152.808594 215.011719 152.582031 214.414062 152.582031 C 214.339844 152.574219 214.261719 152.574219 214.195312 152.582031 C 213.628906 152.601562 213.207031 152.855469 212.832031 153.230469 L 210.882812 155.195312 C 210.507812 155.566406 210.285156 156.050781 210.246094 156.578125 C 210.230469 156.640625 210.230469 156.710938 210.230469 156.777344 C 210.238281 157.375 210.464844 157.925781 210.894531 158.347656 L 229.429688 176.746094 C 230.300781 177.609375 231.71875 177.605469 232.585938 176.730469 L 234.535156 174.769531 C 235.398438 173.898438 235.394531 172.480469 234.519531 171.613281 Z M 234.519531 171.621094 " fill-opacity="1" fill-rule="nonzero"/></g><path fill="#f8d26b" d="M 208.011719 149.792969 L 202.601562 144.417969 L 202.546875 144.363281 C 202.546875 144.363281 202.527344 144.382812 202.519531 144.390625 C 202.332031 144.542969 202.144531 144.6875 201.964844 144.828125 C 201.628906 145.097656 201.289062 145.351562 200.957031 145.601562 L 204.648438 149.273438 L 207.753906 152.359375 L 208.136719 152.738281 L 209.546875 151.308594 L 209.167969 150.933594 L 208.019531 149.792969 Z M 208.011719 149.792969 " fill-opacity="1" fill-rule="nonzero"/><path fill="#f8d26b" d="M 213.003906 145.78125 C 213.542969 145.773438 214.097656 145.738281 214.664062 145.691406 C 215.535156 145.628906 216.386719 145.539062 217.238281 145.40625 C 220.136719 144.980469 222.894531 144.183594 225.453125 143.050781 C 225.875 142.871094 226.242188 142.695312 226.617188 142.523438 L 226.925781 142.386719 C 227.792969 141.949219 228.710938 141.445312 229.617188 140.90625 C 231.0625 140.035156 232.46875 139.03125 233.796875 137.925781 C 234.203125 137.59375 234.597656 137.238281 234.984375 136.878906 C 234.023438 132.523438 231.867188 128.574219 228.683594 125.390625 C 226.410156 123.117188 223.664062 121.320312 220.6875 120.144531 C 219.75 120.757812 218.738281 121.261719 217.671875 121.65625 C 216.011719 127.347656 213.199219 132.8125 209.214844 137.695312 C 208.324219 138.804688 207.3125 139.9375 206.207031 141.058594 C 206.046875 141.222656 205.878906 141.382812 205.714844 141.542969 L 209.914062 145.71875 C 210.425781 145.753906 210.875 145.773438 211.324219 145.78125 Z M 213.003906 145.78125 " fill-opacity="1" fill-rule="nonzero"/><path fill="#f8d26b" d="M 204.171875 123.863281 C 204.609375 122.972656 205.003906 122.066406 205.355469 121.152344 C 204.71875 120.863281 204.117188 120.523438 203.535156 120.144531 C 201.171875 121.070312 199.007812 122.363281 197.105469 123.945312 C 198.371094 125.902344 199.371094 128.011719 200.097656 130.226562 C 200.105469 130.210938 200.113281 130.207031 200.121094 130.199219 C 200.304688 129.976562 200.480469 129.75 200.644531 129.527344 C 200.824219 129.308594 200.992188 129.078125 201.15625 128.851562 C 201.324219 128.621094 201.480469 128.394531 201.640625 128.164062 C 201.882812 127.820312 202.113281 127.472656 202.339844 127.121094 C 202.789062 126.414062 203.203125 125.695312 203.605469 124.96875 C 203.800781 124.605469 203.984375 124.238281 204.171875 123.863281 Z M 204.171875 123.863281 " fill-opacity="1" fill-rule="nonzero"/><path fill="#f8d26b" d="M 219.0625 115.183594 C 219.015625 115.542969 218.964844 115.902344 218.90625 116.253906 C 219.265625 116 219.609375 115.722656 219.933594 115.425781 C 222.308594 113.289062 223.800781 110.195312 223.800781 106.757812 C 223.800781 102.367188 221.367188 98.527344 217.769531 96.53125 C 218.917969 100.578125 219.5 104.753906 219.5 108.9375 C 219.5 111.027344 219.355469 113.109375 219.0625 115.183594 Z M 219.0625 115.183594 " fill-opacity="1" fill-rule="nonzero"/><path fill="#f8d26b" d="M 206.632812 117.078125 C 206.828125 116.3125 206.988281 115.535156 207.117188 114.753906 C 208.140625 108.875 207.601562 102.777344 205.507812 97.125 C 202.445312 99.234375 200.429688 102.761719 200.429688 106.757812 C 200.429688 110.191406 201.917969 113.28125 204.28125 115.425781 C 204.996094 116.0625 205.785156 116.621094 206.632812 117.078125 Z M 206.632812 117.078125 " fill-opacity="1" fill-rule="nonzero"/><path fill="#f8d26b" d="M 173.835938 115.382812 C 176.847656 115.382812 179.59375 114.234375 181.660156 112.367188 C 184.023438 110.230469 185.519531 107.140625 185.519531 103.703125 C 185.519531 97.257812 180.277344 92.015625 173.835938 92.015625 C 167.398438 92.015625 162.148438 97.257812 162.148438 103.703125 C 162.148438 107.132812 163.636719 110.226562 166.007812 112.367188 C 168.082031 114.234375 170.828125 115.382812 173.835938 115.382812 Z M 173.835938 115.382812 " fill-opacity="1" fill-rule="nonzero"/><path fill="#f8d26b" d="M 191.488281 123.496094 C 191.140625 123.097656 190.777344 122.707031 190.402344 122.335938 C 188.125 120.058594 185.378906 118.261719 182.40625 117.09375 C 179.929688 118.695312 176.992188 119.617188 173.835938 119.617188 C 170.683594 119.617188 167.738281 118.691406 165.261719 117.09375 C 161.71875 118.476562 158.636719 120.667969 156.214844 123.433594 C 155.253906 124.519531 154.402344 125.695312 153.664062 126.949219 C 152.417969 129.050781 151.496094 131.355469 150.953125 133.800781 C 151.222656 134.066406 151.496094 134.308594 151.773438 134.550781 C 151.925781 134.679688 152.085938 134.8125 152.246094 134.945312 C 152.480469 135.136719 152.714844 135.324219 152.949219 135.519531 C 153.65625 136.0625 154.347656 136.5625 155.050781 137.027344 L 155.058594 137.027344 C 155.480469 137.316406 155.867188 137.566406 156.257812 137.800781 C 156.285156 137.8125 156.304688 137.828125 156.332031 137.839844 C 156.511719 137.953125 156.679688 138.054688 156.835938 138.144531 C 156.84375 138.144531 156.851562 138.160156 156.859375 138.160156 C 157.039062 138.269531 157.210938 138.367188 157.382812 138.457031 C 157.492188 138.519531 157.597656 138.574219 157.707031 138.628906 C 158.21875 138.921875 158.65625 139.148438 159.105469 139.363281 L 159.457031 139.527344 C 159.796875 139.6875 160.128906 139.839844 160.476562 139.984375 C 160.480469 139.984375 160.488281 139.992188 160.496094 139.992188 L 160.800781 140.117188 C 160.855469 140.136719 160.917969 140.164062 160.972656 140.1875 C 161.332031 140.339844 161.691406 140.484375 162.066406 140.613281 C 162.078125 140.621094 162.09375 140.621094 162.105469 140.628906 C 162.523438 140.789062 162.949219 140.925781 163.371094 141.066406 C 163.402344 141.070312 163.421875 141.078125 163.449219 141.085938 C 163.484375 141.097656 163.523438 141.113281 163.566406 141.125 C 163.609375 141.140625 163.648438 141.15625 163.683594 141.167969 C 163.703125 141.167969 163.914062 141.238281 163.941406 141.246094 C 164.398438 141.398438 164.847656 141.527344 165.289062 141.644531 C 165.882812 141.804688 166.464844 141.941406 167.023438 142.046875 L 167.074219 142.046875 C 167.074219 142.046875 168.796875 142.359375 168.796875 142.359375 C 168.953125 142.386719 169.113281 142.40625 169.273438 142.425781 C 169.335938 142.433594 169.398438 142.449219 169.460938 142.453125 C 169.765625 142.496094 170.066406 142.53125 170.378906 142.558594 C 170.84375 142.605469 171.292969 142.648438 171.726562 142.667969 C 171.878906 142.675781 172.023438 142.691406 172.175781 142.695312 C 172.324219 142.703125 172.476562 142.71875 172.621094 142.71875 C 172.757812 142.722656 172.898438 142.730469 173.035156 142.730469 L 173.042969 142.730469 C 173.539062 142.753906 174.015625 142.753906 174.480469 142.730469 L 174.722656 142.730469 C 174.847656 142.730469 174.972656 142.730469 175.097656 142.71875 L 175.160156 142.71875 C 175.261719 142.71875 175.367188 142.710938 175.476562 142.695312 C 175.773438 142.683594 176.070312 142.664062 176.375 142.640625 C 177.027344 142.59375 177.667969 142.523438 178.3125 142.441406 C 178.519531 142.414062 178.734375 142.386719 178.949219 142.351562 C 181.644531 141.949219 184.21875 141.238281 186.625 140.222656 C 186.804688 140.152344 186.984375 140.070312 187.164062 139.992188 C 187.574219 139.820312 187.925781 139.652344 188.285156 139.488281 L 188.582031 139.355469 L 188.636719 139.328125 C 189.324219 138.984375 190.042969 138.601562 190.753906 138.1875 C 190.949219 138.078125 191.136719 137.964844 191.328125 137.847656 C 191.621094 137.675781 191.902344 137.496094 192.195312 137.308594 C 193.335938 136.574219 194.441406 135.753906 195.507812 134.867188 C 195.691406 134.714844 195.878906 134.554688 196.066406 134.398438 C 196.148438 134.320312 196.234375 134.253906 196.316406 134.175781 C 196.378906 134.128906 196.433594 134.070312 196.488281 134.023438 C 196.566406 133.953125 196.632812 133.890625 196.703125 133.824219 C 196.171875 131.410156 195.269531 129.128906 194.027344 127.023438 C 193.292969 125.78125 192.441406 124.597656 191.480469 123.496094 Z M 191.488281 123.496094 " fill-opacity="1" fill-rule="nonzero"/><path fill="#f8d26b" d="M 142.300781 121.0625 C 142.96875 122.828125 143.792969 124.535156 144.769531 126.1875 C 145.195312 126.90625 145.652344 127.621094 146.136719 128.3125 C 146.304688 128.546875 146.46875 128.773438 146.636719 129.003906 C 146.933594 129.402344 147.238281 129.804688 147.5625 130.191406 C 148.300781 127.945312 149.324219 125.820312 150.589844 123.863281 C 148.660156 122.253906 146.476562 120.945312 144.152344 120.03125 C 143.566406 120.417969 142.941406 120.765625 142.300781 121.0625 Z M 142.300781 121.0625 " fill-opacity="1" fill-rule="nonzero"/><path fill="#f8d26b" d="M 147.257812 106.640625 C 147.257812 102.664062 145.257812 99.144531 142.214844 97.035156 L 142.207031 97.035156 C 142.113281 97.292969 142.023438 97.539062 141.9375 97.796875 C 141.863281 98.023438 141.785156 98.246094 141.710938 98.472656 C 141.566406 98.921875 141.433594 99.378906 141.304688 99.835938 C 141.179688 100.292969 141.0625 100.757812 140.949219 101.210938 C 140.679688 102.367188 140.472656 103.535156 140.328125 104.710938 C 140.273438 105.175781 140.222656 105.632812 140.183594 106.09375 L 140.183594 106.117188 C 140.140625 106.578125 140.113281 107.042969 140.09375 107.507812 C 140.03125 109.027344 140.066406 110.554688 140.210938 112.070312 C 140.21875 112.175781 140.222656 112.273438 140.238281 112.367188 C 140.3125 113.121094 140.417969 113.882812 140.542969 114.636719 C 140.632812 115.164062 140.734375 115.695312 140.847656 116.222656 C 140.847656 116.226562 140.847656 116.234375 140.851562 116.234375 C 140.875 116.359375 140.902344 116.484375 140.9375 116.601562 C 140.964844 116.726562 140.992188 116.851562 141.027344 116.976562 C 141.882812 116.519531 142.6875 115.957031 143.398438 115.308594 C 145.769531 113.171875 147.257812 110.078125 147.257812 106.640625 Z M 147.257812 106.640625 " fill-opacity="1" fill-rule="nonzero"/><path fill="#f8d26b" d="M 128.839844 116.179688 C 128.777344 115.804688 128.722656 115.433594 128.671875 115.058594 C 127.835938 108.828125 128.292969 102.445312 130.027344 96.355469 C 126.382812 98.34375 123.894531 102.207031 123.894531 106.640625 C 123.894531 110.078125 125.382812 113.164062 127.746094 115.308594 C 128.09375 115.621094 128.460938 115.910156 128.839844 116.179688 Z M 128.839844 116.179688 " fill-opacity="1" fill-rule="nonzero"/><g clip-path="url(#89d0e83a7c)"><path fill="#f8d26b" d="M 130.035156 121.558594 C 128.964844 121.160156 127.949219 120.648438 127 120.03125 C 119.722656 122.882812 114.363281 129.15625 112.695312 136.75 C 113.113281 137.144531 113.539062 137.523438 113.984375 137.890625 C 114.9375 138.671875 115.859375 139.347656 116.796875 139.964844 C 117.253906 140.289062 117.65625 140.546875 118.078125 140.789062 C 118.582031 141.105469 119.019531 141.347656 119.453125 141.578125 C 119.960938 141.859375 120.402344 142.09375 120.84375 142.300781 L 121.164062 142.449219 C 121.527344 142.621094 121.882812 142.785156 122.25 142.9375 L 122.566406 143.070312 C 122.996094 143.242188 123.410156 143.417969 123.859375 143.574219 C 124.300781 143.734375 124.753906 143.894531 125.203125 144.03125 C 125.277344 144.050781 125.347656 144.082031 125.421875 144.109375 C 125.449219 144.109375 125.65625 144.183594 125.6875 144.191406 C 126.738281 144.535156 127.773438 144.800781 128.777344 144.984375 L 130.542969 145.304688 C 131.328125 145.421875 132.171875 145.511719 133.015625 145.574219 C 133.679688 145.621094 134.226562 145.664062 134.789062 145.671875 L 136.46875 145.671875 C 137.007812 145.671875 137.566406 145.621094 138.121094 145.582031 C 139 145.511719 139.84375 145.421875 140.703125 145.289062 C 142.207031 145.070312 143.683594 144.742188 145.101562 144.328125 C 143.929688 143.382812 142.796875 142.363281 141.710938 141.292969 C 136 135.621094 132.105469 128.800781 130.035156 121.558594 Z M 130.035156 121.558594 " fill-opacity="1" fill-rule="nonzero"/></g><g transform="matrix(1, 0, 0, 1, 0, 161)"><g clip-path="url(#2225d82000)"><g fill="#efc75e" fill-opacity="1"><g transform="translate(0.537475, 59.899313)"><g><path d="M 4.71875 0 L 4.71875 -39.328125 L 21.515625 -39.328125 C 24.515625 -39.328125 27.117188 -38.785156 29.328125 -37.703125 C 31.535156 -36.617188 33.238281 -35.0625 34.4375 -33.03125 C 35.632812 -31.007812 36.234375 -28.597656 36.234375 -25.796875 C 36.234375 -22.910156 35.578125 -20.425781 34.265625 -18.34375 C 32.960938 -16.269531 31.128906 -14.707031 28.765625 -13.65625 L 36.921875 0 L 26.578125 0 L 19.546875 -12.25 L 13.65625 -12.25 L 13.65625 0 Z M 13.546875 -19.78125 L 20.34375 -19.78125 C 22.550781 -19.78125 24.242188 -20.296875 25.421875 -21.328125 C 26.597656 -22.359375 27.1875 -23.828125 27.1875 -25.734375 C 27.1875 -27.640625 26.597656 -29.109375 25.421875 -30.140625 C 24.242188 -31.171875 22.550781 -31.6875 20.34375 -31.6875 L 13.546875 -31.6875 Z M 13.546875 -19.78125 "/></g></g></g><g fill="#efc75e" fill-opacity="1"><g transform="translate(40.091344, 59.899313)"><g><path d="M 18.203125 0.78125 C 15.054688 0.78125 12.273438 0.128906 9.859375 -1.171875 C 7.441406 -2.484375 5.554688 -4.3125 4.203125 -6.65625 C 2.859375 -9 2.1875 -11.707031 2.1875 -14.78125 C 2.1875 -17.851562 2.867188 -20.550781 4.234375 -22.875 C 5.609375 -25.195312 7.503906 -27.007812 9.921875 -28.3125 C 12.335938 -29.625 15.132812 -30.28125 18.3125 -30.28125 C 21.6875 -30.28125 24.597656 -29.53125 27.046875 -28.03125 C 29.503906 -26.539062 31.378906 -24.445312 32.671875 -21.75 C 33.960938 -19.050781 34.515625 -15.90625 34.328125 -12.3125 L 10.671875 -12.3125 C 11.085938 -10.28125 11.988281 -8.726562 13.375 -7.65625 C 14.757812 -6.59375 16.425781 -6.0625 18.375 -6.0625 C 19.800781 -6.0625 21.101562 -6.332031 22.28125 -6.875 C 23.457031 -7.425781 24.398438 -8.1875 25.109375 -9.15625 L 33.765625 -9.15625 C 32.492188 -6.050781 30.488281 -3.617188 27.75 -1.859375 C 25.019531 -0.0976562 21.835938 0.78125 18.203125 0.78125 Z M 10.734375 -17.703125 L 26.078125 -17.703125 C 25.585938 -19.492188 24.675781 -20.90625 23.34375 -21.9375 C 22.007812 -22.96875 20.351562 -23.484375 18.375 -23.484375 C 16.5 -23.484375 14.878906 -22.96875 13.515625 -21.9375 C 12.148438 -20.90625 11.222656 -19.492188 10.734375 -17.703125 Z M 10.734375 -17.703125 "/></g></g></g><g fill="#efc75e" fill-opacity="1"><g transform="translate(76.555065, 59.899313)"><g><path d="M 18.3125 0.78125 C 15.164062 0.78125 12.375 0.117188 9.9375 -1.203125 C 7.507812 -2.535156 5.609375 -4.367188 4.234375 -6.703125 C 2.867188 -9.046875 2.1875 -11.738281 2.1875 -14.78125 C 2.1875 -17.8125 2.867188 -20.488281 4.234375 -22.8125 C 5.609375 -25.132812 7.507812 -26.957031 9.9375 -28.28125 C 12.375 -29.613281 15.164062 -30.28125 18.3125 -30.28125 C 21.050781 -30.28125 23.535156 -29.785156 25.765625 -28.796875 C 27.992188 -27.804688 29.835938 -26.398438 31.296875 -24.578125 C 32.753906 -22.765625 33.707031 -20.640625 34.15625 -18.203125 L 25.953125 -18.203125 C 25.242188 -19.703125 24.234375 -20.875 22.921875 -21.71875 C 21.609375 -22.5625 20.109375 -22.984375 18.421875 -22.984375 C 16.140625 -22.984375 14.269531 -22.222656 12.8125 -20.703125 C 11.351562 -19.179688 10.625 -17.207031 10.625 -14.78125 C 10.625 -12.382812 11.351562 -10.414062 12.8125 -8.875 C 14.269531 -7.34375 16.140625 -6.578125 18.421875 -6.578125 C 20.222656 -6.578125 21.804688 -7.050781 23.171875 -8 C 24.546875 -8.957031 25.53125 -10.242188 26.125 -11.859375 L 34.4375 -11.859375 C 33.914062 -9.273438 32.914062 -7.035156 31.4375 -5.140625 C 29.957031 -3.242188 28.09375 -1.78125 25.84375 -0.75 C 23.59375 0.269531 21.082031 0.78125 18.3125 0.78125 Z M 18.3125 0.78125 "/></g></g></g><g fill="#efc75e" fill-opacity="1"><g transform="translate(113.074972, 59.899313)"><g><path d="M 4.265625 0 L 4.265625 -29.5 L 10.625 -29.5 L 11.75 -25.5625 C 12.71875 -26.945312 13.910156 -27.945312 15.328125 -28.5625 C 16.753906 -29.1875 18.554688 -29.5 20.734375 -29.5 L 23.9375 -29.5 L 23.9375 -21.75 L 20.671875 -21.75 C 18.242188 -21.75 16.328125 -21.09375 14.921875 -19.78125 C 13.515625 -18.46875 12.8125 -16.21875 12.8125 -13.03125 L 12.8125 0 Z M 4.265625 0 "/></g></g></g><g fill="#efc75e" fill-opacity="1"><g transform="translate(138.919831, 59.899313)"><g><path d="M 16.015625 0.78125 C 12.191406 0.78125 9.179688 -0.425781 6.984375 -2.84375 C 4.796875 -5.257812 3.703125 -8.507812 3.703125 -12.59375 L 3.703125 -29.5 L 12.25 -29.5 L 12.25 -13.421875 C 12.25 -11.253906 12.765625 -9.570312 13.796875 -8.375 C 14.828125 -7.175781 16.238281 -6.578125 18.03125 -6.578125 C 19.976562 -6.578125 21.53125 -7.25 22.6875 -8.59375 C 23.851562 -9.945312 24.4375 -11.785156 24.4375 -14.109375 L 24.4375 -29.5 L 32.984375 -29.5 L 32.984375 0 L 26.640625 0 L 25.734375 -3.3125 C 24.566406 -1.925781 23.140625 -0.894531 21.453125 -0.21875 C 19.773438 0.445312 17.960938 0.78125 16.015625 0.78125 Z M 16.015625 0.78125 "/></g></g></g><g fill="#efc75e" fill-opacity="1"><g transform="translate(176.17014, 59.899313)"><g><path d="M 18.484375 0 C 14.734375 0 11.859375 -0.960938 9.859375 -2.890625 C 7.859375 -4.816406 6.859375 -7.582031 6.859375 -11.1875 L 6.859375 -22.53125 L 1.125 -22.53125 L 1.125 -29.5 L 3.765625 -29.5 C 5.378906 -29.5 6.472656 -29.757812 7.046875 -30.28125 C 7.628906 -30.8125 8.035156 -31.820312 8.265625 -33.3125 L 8.765625 -37.140625 L 15.390625 -37.140625 L 15.390625 -29.5 L 23.484375 -29.5 L 23.484375 -22.53125 L 15.390625 -22.53125 L 15.390625 -12.46875 C 15.390625 -9.101562 17.039062 -7.421875 20.34375 -7.421875 L 23.875 -7.421875 L 23.875 0 Z M 18.484375 0 "/></g></g></g><g fill="#efc75e" fill-opacity="1"><g transform="translate(202.408285, 59.899313)"><g><path d="M 4.265625 0 L 4.265625 -29.5 L 12.8125 -29.5 L 12.8125 0 Z M 3.03125 -39.046875 C 3.03125 -40.617188 3.546875 -41.898438 4.578125 -42.890625 C 5.609375 -43.890625 6.929688 -44.390625 8.546875 -44.390625 C 10.191406 -44.390625 11.519531 -43.890625 12.53125 -42.890625 C 13.539062 -41.898438 14.046875 -40.617188 14.046875 -39.046875 C 14.046875 -37.472656 13.539062 -36.191406 12.53125 -35.203125 C 11.519531 -34.210938 10.191406 -33.71875 8.546875 -33.71875 C 6.929688 -33.71875 5.609375 -34.210938 4.578125 -35.203125 C 3.546875 -36.191406 3.03125 -37.472656 3.03125 -39.046875 Z M 3.03125 -39.046875 "/></g></g></g><g fill="#efc75e" fill-opacity="1"><g transform="translate(219.488373, 59.899313)"><g><path d="M 1.34375 0 L 11.859375 -15 L 1.796875 -29.5 L 11.46875 -29.5 L 17.1875 -20.796875 L 19.953125 -25 L 22.984375 -29.5 L 32.640625 -29.5 L 22.640625 -15 L 33.09375 0 L 23.265625 0 L 20.0625 -4.71875 L 17.25 -8.9375 L 14.390625 -4.71875 L 11.1875 0 Z M 1.34375 0 "/></g></g></g><g fill="#efc75e" fill-opacity="1"><g transform="translate(253.929463, 59.899313)"><g/></g></g><g fill="#efc75e" fill-opacity="1"><g transform="translate(267.132815, 59.899313)"><g><path d="M 4.71875 0 L 4.71875 -39.328125 L 13.65625 -39.328125 L 13.65625 0 Z M 4.71875 0 "/></g></g></g><g fill="#efc75e" fill-opacity="1"><g transform="translate(285.505117, 59.899313)"><g><path d="M 4.265625 0 L 4.265625 -29.5 L 10.625 -29.5 L 11.515625 -26.1875 C 12.710938 -27.570312 14.160156 -28.597656 15.859375 -29.265625 C 17.566406 -29.941406 19.394531 -30.28125 21.34375 -30.28125 C 25.207031 -30.28125 28.234375 -29.082031 30.421875 -26.6875 C 32.617188 -24.289062 33.71875 -21.050781 33.71875 -16.96875 L 33.71875 0 L 25.171875 0 L 25.171875 -16.0625 C 25.171875 -18.238281 24.65625 -19.9375 23.625 -21.15625 C 22.59375 -22.375 21.160156 -22.984375 19.328125 -22.984375 C 17.378906 -22.984375 15.804688 -22.304688 14.609375 -20.953125 C 13.410156 -19.609375 12.8125 -17.773438 12.8125 -15.453125 L 12.8125 0 Z M 4.265625 0 "/></g></g></g><g fill="#efc75e" fill-opacity="1"><g transform="translate(322.923982, 59.899313)"><g><path d="M 18.3125 0.78125 C 15.164062 0.78125 12.375 0.117188 9.9375 -1.203125 C 7.507812 -2.535156 5.609375 -4.367188 4.234375 -6.703125 C 2.867188 -9.046875 2.1875 -11.738281 2.1875 -14.78125 C 2.1875 -17.8125 2.867188 -20.488281 4.234375 -22.8125 C 5.609375 -25.132812 7.507812 -26.957031 9.9375 -28.28125 C 12.375 -29.613281 15.164062 -30.28125 18.3125 -30.28125 C 21.050781 -30.28125 23.535156 -29.785156 25.765625 -28.796875 C 27.992188 -27.804688 29.835938 -26.398438 31.296875 -24.578125 C 32.753906 -22.765625 33.707031 -20.640625 34.15625 -18.203125 L 25.953125 -18.203125 C 25.242188 -19.703125 24.234375 -20.875 22.921875 -21.71875 C 21.609375 -22.5625 20.109375 -22.984375 18.421875 -22.984375 C 16.140625 -22.984375 14.269531 -22.222656 12.8125 -20.703125 C 11.351562 -19.179688 10.625 -17.207031 10.625 -14.78125 C 10.625 -12.382812 11.351562 -10.414062 12.8125 -8.875 C 14.269531 -7.34375 16.140625 -6.578125 18.421875 -6.578125 C 20.222656 -6.578125 21.804688 -7.050781 23.171875 -8 C 24.546875 -8.957031 25.53125 -10.242188 26.125 -11.859375 L 34.4375 -11.859375 C 33.914062 -9.273438 32.914062 -7.035156 31.4375 -5.140625 C 29.957031 -3.242188 28.09375 -1.78125 25.84375 -0.75 C 23.59375 0.269531 21.082031 0.78125 18.3125 0.78125 Z M 18.3125 0.78125 "/></g></g></g><g fill="#efc75e" fill-opacity="1"><g transform="translate(359.443906, 59.899313)"><g><path d="M 7.53125 0.625 C 5.988281 0.625 4.726562 0.144531 3.75 -0.8125 C 2.78125 -1.769531 2.296875 -2.976562 2.296875 -4.4375 C 2.296875 -5.894531 2.78125 -7.109375 3.75 -8.078125 C 4.726562 -9.054688 5.988281 -9.546875 7.53125 -9.546875 C 9.0625 -9.546875 10.3125 -9.054688 11.28125 -8.078125 C 12.257812 -7.109375 12.75 -5.894531 12.75 -4.4375 C 12.75 -2.976562 12.257812 -1.769531 11.28125 -0.8125 C 10.3125 0.144531 9.0625 0.625 7.53125 0.625 Z M 7.53125 0.625 "/></g></g></g></g></g></svg>