<svg xmlns="http://www.w3.org/2000/svg" xmlns:xlink="http://www.w3.org/1999/xlink" width="500" zoomAndPan="magnify" viewBox="0 0 375 374.999991" height="500" preserveAspectRatio="xMidYMid meet" version="1.0"><defs><g/><clipPath id="be2e4aacc4"><path d="M 210 21 L 251.523438 21 L 251.523438 44 L 210 44 Z M 210 21 " clip-rule="nonzero"/></clipPath><clipPath id="67867457db"><path d="M 107.523438 21 L 149 21 L 149 44 L 107.523438 44 Z M 107.523438 21 " clip-rule="nonzero"/></clipPath><clipPath id="2b93f8ebe6"><path d="M 222 72 L 251.523438 72 L 251.523438 94 L 222 94 Z M 222 72 " clip-rule="nonzero"/></clipPath><clipPath id="cb611144d9"><path d="M 107.523438 72 L 137 72 L 137 94 L 107.523438 94 Z M 107.523438 72 " clip-rule="nonzero"/></clipPath><clipPath id="cd0e3e5e9c"><path d="M 107.523438 122 L 149 122 L 149 144 L 107.523438 144 Z M 107.523438 122 " clip-rule="nonzero"/></clipPath></defs><g clip-path="url(#be2e4aacc4)"><path fill="#2e3760" d="M 210.445312 33.597656 C 210.660156 27.578125 215.347656 23.59375 221.480469 21.636719 C 222.128906 22.210938 222.828125 22.722656 223.570312 23.171875 C 224.3125 23.617188 225.089844 23.996094 225.902344 24.304688 C 226.714844 24.609375 227.546875 24.84375 228.398438 25 C 229.253906 25.15625 230.113281 25.234375 230.984375 25.234375 C 231.851562 25.234375 232.710938 25.15625 233.566406 25 C 234.417969 24.84375 235.25 24.609375 236.0625 24.304688 C 236.875 23.996094 237.652344 23.617188 238.394531 23.171875 C 239.140625 22.722656 239.835938 22.210938 240.488281 21.636719 C 246.617188 23.59375 251.304688 27.578125 251.519531 33.597656 L 251.519531 43.207031 L 218.292969 43.207031 C 216.007812 40.128906 213.390625 37.363281 210.445312 34.910156 Z M 210.445312 33.597656 " fill-opacity="1" fill-rule="evenodd"/></g><path fill="#2e3760" d="M 230.988281 0 C 231.699219 0 232.40625 0.0664062 233.105469 0.207031 C 233.804688 0.347656 234.484375 0.550781 235.144531 0.824219 C 235.800781 1.097656 236.425781 1.433594 237.019531 1.828125 C 237.613281 2.226562 238.160156 2.675781 238.667969 3.179688 C 239.171875 3.683594 239.621094 4.230469 240.015625 4.824219 C 240.414062 5.417969 240.746094 6.042969 241.019531 6.703125 C 241.292969 7.363281 241.5 8.039062 241.636719 8.738281 C 241.777344 9.441406 241.847656 10.144531 241.847656 10.859375 C 241.847656 11.570312 241.777344 12.277344 241.636719 12.976562 C 241.5 13.675781 241.292969 14.355469 241.019531 15.015625 C 240.746094 15.671875 240.414062 16.300781 240.015625 16.890625 C 239.621094 17.484375 239.171875 18.035156 238.667969 18.539062 C 238.160156 19.042969 237.613281 19.492188 237.019531 19.886719 C 236.425781 20.285156 235.800781 20.621094 235.144531 20.890625 C 234.484375 21.164062 233.804688 21.371094 233.105469 21.511719 C 232.40625 21.648438 231.699219 21.71875 230.988281 21.71875 C 230.273438 21.71875 229.566406 21.648438 228.867188 21.511719 C 228.167969 21.371094 227.488281 21.164062 226.832031 20.890625 C 226.171875 20.621094 225.546875 20.285156 224.953125 19.886719 C 224.359375 19.492188 223.8125 19.042969 223.308594 18.539062 C 222.804688 18.035156 222.351562 17.484375 221.957031 16.890625 C 221.5625 16.300781 221.226562 15.671875 220.953125 15.015625 C 220.679688 14.355469 220.476562 13.675781 220.335938 12.976562 C 220.195312 12.277344 220.125 11.570312 220.125 10.859375 C 220.125 10.144531 220.195312 9.4375 220.335938 8.738281 C 220.472656 8.039062 220.679688 7.363281 220.953125 6.703125 C 221.226562 6.042969 221.5625 5.417969 221.957031 4.824219 C 222.351562 4.230469 222.804688 3.683594 223.308594 3.179688 C 223.8125 2.675781 224.359375 2.226562 224.953125 1.828125 C 225.546875 1.433594 226.171875 1.097656 226.832031 0.824219 C 227.488281 0.550781 228.167969 0.347656 228.867188 0.207031 C 229.566406 0.0664062 230.273438 0 230.988281 0 Z M 230.988281 0 " fill-opacity="1" fill-rule="evenodd"/><g clip-path="url(#67867457db)"><path fill="#2e3760" d="M 107.527344 33.597656 C 107.742188 27.578125 112.429688 23.59375 118.5625 21.636719 C 119.210938 22.210938 119.90625 22.722656 120.652344 23.171875 C 121.394531 23.617188 122.171875 23.996094 122.984375 24.304688 C 123.796875 24.609375 124.628906 24.84375 125.480469 25 C 126.335938 25.15625 127.195312 25.234375 128.066406 25.234375 C 128.933594 25.234375 129.792969 25.15625 130.648438 25 C 131.5 24.84375 132.332031 24.609375 133.144531 24.304688 C 133.957031 23.996094 134.734375 23.617188 135.476562 23.171875 C 136.222656 22.722656 136.917969 22.210938 137.566406 21.636719 C 143.699219 23.59375 148.386719 27.578125 148.601562 33.597656 L 148.601562 34.910156 C 145.65625 37.363281 143.039062 40.128906 140.753906 43.207031 L 107.527344 43.207031 Z M 107.527344 33.597656 " fill-opacity="1" fill-rule="evenodd"/></g><path fill="#2e3760" d="M 128.058594 0 C 128.773438 0 129.480469 0.0664062 130.179688 0.207031 C 130.878906 0.347656 131.558594 0.550781 132.214844 0.824219 C 132.875 1.097656 133.5 1.433594 134.09375 1.828125 C 134.6875 2.226562 135.234375 2.675781 135.738281 3.179688 C 136.242188 3.683594 136.695312 4.230469 137.089844 4.824219 C 137.488281 5.417969 137.820312 6.042969 138.09375 6.703125 C 138.367188 7.363281 138.574219 8.039062 138.710938 8.738281 C 138.851562 9.4375 138.921875 10.144531 138.921875 10.859375 C 138.921875 11.570312 138.851562 12.277344 138.710938 12.976562 C 138.574219 13.675781 138.367188 14.355469 138.09375 15.015625 C 137.820312 15.671875 137.488281 16.300781 137.089844 16.890625 C 136.695312 17.484375 136.242188 18.035156 135.738281 18.539062 C 135.234375 19.042969 134.6875 19.492188 134.09375 19.886719 C 133.5 20.285156 132.875 20.621094 132.214844 20.890625 C 131.558594 21.164062 130.878906 21.371094 130.179688 21.511719 C 129.480469 21.648438 128.773438 21.71875 128.058594 21.71875 C 127.347656 21.71875 126.640625 21.648438 125.941406 21.511719 C 125.242188 21.371094 124.5625 21.164062 123.90625 20.890625 C 123.246094 20.621094 122.621094 20.285156 122.027344 19.886719 C 121.433594 19.492188 120.886719 19.042969 120.382812 18.539062 C 119.875 18.035156 119.425781 17.484375 119.03125 16.890625 C 118.632812 16.300781 118.300781 15.671875 118.027344 15.015625 C 117.753906 14.355469 117.546875 13.675781 117.410156 12.976562 C 117.269531 12.277344 117.199219 11.570312 117.199219 10.859375 C 117.199219 10.144531 117.269531 9.4375 117.410156 8.738281 C 117.546875 8.039062 117.753906 7.363281 118.027344 6.703125 C 118.300781 6.042969 118.632812 5.417969 119.03125 4.824219 C 119.425781 4.230469 119.875 3.683594 120.382812 3.179688 C 120.886719 2.675781 121.433594 2.226562 122.027344 1.828125 C 122.621094 1.433594 123.246094 1.097656 123.902344 0.824219 C 124.5625 0.550781 125.242188 0.347656 125.941406 0.207031 C 126.640625 0.0664062 127.347656 0 128.058594 0 Z M 128.058594 0 " fill-opacity="1" fill-rule="evenodd"/><g clip-path="url(#2b93f8ebe6)"><path fill="#2e3760" d="M 227.703125 75.25 C 228.816406 75.511719 229.949219 75.636719 231.097656 75.628906 C 232.242188 75.621094 233.371094 75.476562 234.484375 75.199219 C 235.597656 74.917969 236.660156 74.511719 237.675781 73.976562 C 238.691406 73.441406 239.625 72.796875 240.488281 72.039062 C 246.617188 73.988281 251.304688 77.976562 251.519531 83.992188 L 251.519531 93.601562 L 222.722656 93.601562 C 225.613281 87.816406 227.273438 81.699219 227.703125 75.25 Z M 227.703125 75.25 " fill-opacity="1" fill-rule="evenodd"/></g><path fill="#2e3760" d="M 230.988281 50.398438 C 231.375 50.398438 231.765625 50.421875 232.152344 50.460938 C 232.539062 50.503906 232.921875 50.566406 233.304688 50.648438 C 233.683594 50.734375 234.058594 50.835938 234.425781 50.960938 C 234.796875 51.082031 235.160156 51.226562 235.511719 51.386719 C 235.867188 51.550781 236.210938 51.730469 236.546875 51.929688 C 236.878906 52.128906 237.203125 52.347656 237.515625 52.582031 C 237.824219 52.816406 238.121094 53.066406 238.40625 53.332031 C 238.691406 53.597656 238.960938 53.878906 239.214844 54.171875 C 239.46875 54.46875 239.707031 54.773438 239.925781 55.09375 C 240.148438 55.417969 240.351562 55.746094 240.539062 56.089844 C 240.722656 56.433594 240.890625 56.785156 241.035156 57.144531 C 241.183594 57.503906 241.3125 57.871094 241.421875 58.246094 C 241.527344 58.621094 241.617188 59 241.683594 59.382812 C 241.75 59.765625 241.796875 60.152344 241.824219 60.539062 C 241.847656 60.929688 241.855469 61.316406 241.839844 61.707031 C 241.820312 62.09375 241.785156 62.484375 241.726562 62.867188 C 241.671875 63.253906 241.59375 63.632812 241.492188 64.011719 C 241.394531 64.386719 241.277344 64.757812 241.136719 65.121094 C 241 65.484375 240.84375 65.839844 240.664062 66.1875 C 240.488281 66.535156 240.292969 66.871094 240.082031 67.199219 C 239.867188 67.523438 239.640625 67.835938 239.390625 68.136719 C 239.144531 68.441406 238.882812 68.726562 238.605469 69 C 238.328125 69.273438 238.039062 69.53125 237.734375 69.773438 C 237.425781 70.015625 237.109375 70.238281 236.78125 70.449219 C 236.453125 70.65625 236.113281 70.84375 235.761719 71.015625 C 235.414062 71.1875 235.054688 71.339844 234.6875 71.472656 C 234.324219 71.605469 233.949219 71.71875 233.570312 71.808594 C 233.195312 71.902344 232.8125 71.976562 232.425781 72.027344 C 232.039062 72.078125 231.652344 72.109375 231.261719 72.117188 C 230.875 72.128906 230.484375 72.117188 230.097656 72.085938 C 229.710938 72.054688 229.324219 72 228.941406 71.929688 C 228.558594 71.855469 228.183594 71.761719 227.808594 71.648438 C 227.761719 65.171875 226.464844 58.953125 223.925781 52.996094 C 224.910156 52.15625 226.011719 51.515625 227.226562 51.066406 C 228.4375 50.621094 229.691406 50.398438 230.988281 50.398438 Z M 230.988281 50.398438 " fill-opacity="1" fill-rule="evenodd"/><g clip-path="url(#cb611144d9)"><path fill="#2e3760" d="M 107.527344 83.992188 C 107.742188 77.976562 112.429688 73.988281 118.5625 72.039062 C 119.421875 72.796875 120.359375 73.441406 121.371094 73.976562 C 122.386719 74.511719 123.449219 74.917969 124.5625 75.199219 C 125.675781 75.476562 126.804688 75.621094 127.953125 75.628906 C 129.097656 75.636719 130.230469 75.511719 131.347656 75.25 C 131.773438 81.699219 133.433594 87.816406 136.324219 93.601562 L 107.527344 93.601562 Z M 107.527344 83.992188 " fill-opacity="1" fill-rule="evenodd"/></g><path fill="#2e3760" d="M 128.058594 50.398438 C 129.355469 50.398438 130.609375 50.621094 131.824219 51.066406 C 133.035156 51.515625 134.136719 52.15625 135.121094 52.996094 C 132.582031 58.953125 131.285156 65.171875 131.238281 71.648438 C 130.867188 71.761719 130.488281 71.855469 130.105469 71.929688 C 129.722656 72 129.339844 72.054688 128.949219 72.085938 C 128.5625 72.117188 128.171875 72.128906 127.785156 72.117188 C 127.394531 72.109375 127.007812 72.078125 126.621094 72.027344 C 126.234375 71.976562 125.851562 71.902344 125.476562 71.808594 C 125.097656 71.71875 124.726562 71.605469 124.359375 71.472656 C 123.992188 71.339844 123.636719 71.1875 123.285156 71.015625 C 122.933594 70.84375 122.597656 70.65625 122.265625 70.449219 C 121.9375 70.238281 121.621094 70.015625 121.316406 69.773438 C 121.007812 69.53125 120.71875 69.273438 120.441406 69 C 120.164062 68.726562 119.902344 68.441406 119.65625 68.136719 C 119.410156 67.835938 119.179688 67.523438 118.964844 67.199219 C 118.753906 66.871094 118.558594 66.535156 118.382812 66.1875 C 118.207031 65.839844 118.046875 65.484375 117.910156 65.121094 C 117.769531 64.757812 117.652344 64.386719 117.554688 64.011719 C 117.457031 63.632812 117.378906 63.253906 117.320312 62.867188 C 117.261719 62.484375 117.226562 62.09375 117.210938 61.707031 C 117.195312 61.316406 117.199219 60.929688 117.222656 60.539062 C 117.25 60.152344 117.296875 59.765625 117.363281 59.382812 C 117.429688 59 117.519531 58.621094 117.628906 58.246094 C 117.734375 57.871094 117.863281 57.503906 118.011719 57.144531 C 118.160156 56.785156 118.324219 56.433594 118.511719 56.089844 C 118.695312 55.746094 118.898438 55.417969 119.121094 55.09375 C 119.339844 54.773438 119.578125 54.46875 119.832031 54.171875 C 120.085938 53.878906 120.355469 53.597656 120.640625 53.332031 C 120.925781 53.066406 121.222656 52.816406 121.535156 52.582031 C 121.84375 52.347656 122.167969 52.128906 122.503906 51.929688 C 122.835938 51.730469 123.179688 51.550781 123.535156 51.386719 C 123.890625 51.226562 124.25 51.082031 124.621094 50.960938 C 124.988281 50.835938 125.363281 50.734375 125.746094 50.648438 C 126.125 50.566406 126.507812 50.503906 126.894531 50.460938 C 127.28125 50.421875 127.671875 50.398438 128.058594 50.398438 Z M 128.058594 50.398438 " fill-opacity="1" fill-rule="evenodd"/><path fill="#2e3760" d="M 230.6875 115.078125 L 217.472656 101.863281 C 215.097656 104.875 212.402344 107.570312 209.390625 109.945312 L 222.609375 123.160156 Z M 230.6875 115.078125 " fill-opacity="1" fill-rule="evenodd"/><path fill="#ff695a" d="M 240.960938 141.519531 L 249.046875 133.441406 C 249.304688 133.179688 249.503906 132.878906 249.644531 132.542969 C 249.78125 132.203125 249.851562 131.851562 249.851562 131.484375 C 249.851562 131.121094 249.78125 130.769531 249.644531 130.429688 C 249.503906 130.089844 249.304688 129.792969 249.046875 129.53125 L 237.078125 117.570312 C 236.816406 117.308594 236.519531 117.109375 236.179688 116.96875 C 235.839844 116.828125 235.488281 116.761719 235.121094 116.761719 C 234.757812 116.761719 234.402344 116.828125 234.066406 116.96875 C 233.726562 117.109375 233.429688 117.308594 233.167969 117.570312 L 225.089844 125.648438 C 224.832031 125.910156 224.632812 126.207031 224.492188 126.546875 C 224.355469 126.886719 224.285156 127.238281 224.285156 127.601562 C 224.285156 127.96875 224.355469 128.320312 224.492188 128.660156 C 224.632812 128.996094 224.832031 129.296875 225.089844 129.558594 L 237.058594 141.519531 C 237.320312 141.777344 237.617188 141.976562 237.957031 142.113281 C 238.292969 142.253906 238.644531 142.324219 239.007812 142.324219 C 239.375 142.324219 239.726562 142.253906 240.0625 142.113281 C 240.402344 141.976562 240.699219 141.777344 240.960938 141.519531 Z M 240.960938 141.519531 " fill-opacity="1" fill-rule="evenodd"/><path fill="#2e3760" d="M 147.863281 40.335938 C 148.902344 39.300781 149.988281 38.316406 151.121094 37.386719 C 152.253906 36.457031 153.429688 35.582031 154.648438 34.769531 C 155.867188 33.953125 157.125 33.199219 158.417969 32.507812 C 159.710938 31.820312 161.035156 31.191406 162.390625 30.632812 C 163.746094 30.070312 165.125 29.578125 166.527344 29.152344 C 167.929688 28.726562 169.351562 28.371094 170.789062 28.082031 C 172.230469 27.796875 173.675781 27.582031 175.136719 27.4375 C 176.597656 27.296875 178.058594 27.222656 179.527344 27.222656 C 180.992188 27.222656 182.453125 27.296875 183.914062 27.441406 C 185.375 27.582031 186.824219 27.796875 188.261719 28.085938 C 189.699219 28.371094 191.121094 28.726562 192.523438 29.152344 C 193.925781 29.578125 195.304688 30.070312 196.660156 30.632812 C 198.015625 31.195312 199.339844 31.820312 200.632812 32.511719 C 201.925781 33.203125 203.183594 33.957031 204.402344 34.769531 C 205.621094 35.585938 206.796875 36.457031 207.929688 37.386719 C 209.0625 38.320312 210.148438 39.300781 211.1875 40.339844 C 212.222656 41.375 213.207031 42.460938 214.136719 43.59375 C 215.066406 44.726562 215.941406 45.90625 216.753906 47.125 C 217.570312 48.34375 218.320312 49.601562 219.011719 50.894531 C 219.703125 52.1875 220.332031 53.511719 220.890625 54.867188 C 221.453125 56.21875 221.945312 57.597656 222.371094 59.003906 C 222.796875 60.40625 223.152344 61.828125 223.441406 63.265625 C 223.726562 64.703125 223.941406 66.152344 224.085938 67.609375 C 224.226562 69.070312 224.300781 70.535156 224.300781 72 C 224.300781 73.464844 224.226562 74.929688 224.085938 76.390625 C 223.941406 77.847656 223.726562 79.296875 223.441406 80.734375 C 223.152344 82.171875 222.796875 83.59375 222.371094 84.996094 C 221.945312 86.402344 221.453125 87.78125 220.890625 89.132812 C 220.332031 90.488281 219.703125 91.8125 219.011719 93.105469 C 218.320312 94.398438 217.570312 95.65625 216.753906 96.875 C 215.941406 98.09375 215.066406 99.273438 214.136719 100.40625 C 213.207031 101.539062 212.222656 102.625 211.1875 103.660156 C 210.148438 104.699219 209.0625 105.679688 207.929688 106.613281 C 206.796875 107.542969 205.621094 108.414062 204.402344 109.230469 C 203.183594 110.042969 201.925781 110.796875 200.632812 111.488281 C 199.339844 112.179688 198.015625 112.804688 196.660156 113.367188 C 195.304688 113.929688 193.925781 114.421875 192.523438 114.847656 C 191.121094 115.273438 189.699219 115.628906 188.261719 115.914062 C 186.824219 116.203125 185.375 116.417969 183.914062 116.558594 C 182.453125 116.703125 180.992188 116.777344 179.527344 116.777344 C 178.058594 116.777344 176.597656 116.703125 175.136719 116.5625 C 173.675781 116.417969 172.230469 116.203125 170.789062 115.917969 C 169.351562 115.628906 167.929688 115.273438 166.527344 114.847656 C 165.125 114.421875 163.746094 113.929688 162.390625 113.367188 C 161.035156 112.808594 159.710938 112.179688 158.417969 111.492188 C 157.125 110.800781 155.867188 110.046875 154.648438 109.230469 C 153.429688 108.417969 152.253906 107.542969 151.121094 106.613281 C 149.988281 105.683594 148.902344 104.699219 147.863281 103.664062 C 146.828125 102.625 145.84375 101.542969 144.910156 100.40625 C 143.980469 99.273438 143.109375 98.097656 142.292969 96.878906 C 141.476562 95.660156 140.722656 94.402344 140.03125 93.109375 C 139.339844 91.816406 138.714844 90.492188 138.152344 89.136719 C 137.59375 87.78125 137.097656 86.402344 136.671875 85 C 136.246094 83.597656 135.890625 82.175781 135.605469 80.738281 C 135.316406 79.296875 135.101562 77.847656 134.957031 76.390625 C 134.816406 74.929688 134.742188 73.464844 134.742188 72 C 134.742188 70.535156 134.816406 69.070312 134.957031 67.609375 C 135.101562 66.152344 135.316406 64.703125 135.605469 63.261719 C 135.890625 61.824219 136.246094 60.402344 136.671875 59 C 137.097656 57.597656 137.59375 56.21875 138.152344 54.863281 C 138.714844 53.507812 139.339844 52.183594 140.03125 50.890625 C 140.722656 49.597656 141.476562 48.339844 142.292969 47.121094 C 143.109375 45.902344 143.980469 44.726562 144.910156 43.589844 C 145.84375 42.457031 146.828125 41.375 147.863281 40.335938 Z M 152.136719 44.609375 C 153.035156 43.710938 153.972656 42.863281 154.953125 42.058594 C 155.933594 41.253906 156.953125 40.496094 158.007812 39.792969 C 159.0625 39.089844 160.148438 38.4375 161.265625 37.839844 C 162.386719 37.242188 163.53125 36.699219 164.703125 36.214844 C 165.875 35.726562 167.066406 35.300781 168.28125 34.933594 C 169.496094 34.566406 170.726562 34.257812 171.96875 34.011719 C 173.214844 33.761719 174.464844 33.578125 175.730469 33.453125 C 176.992188 33.328125 178.257812 33.265625 179.527344 33.265625 C 180.792969 33.265625 182.058594 33.328125 183.320312 33.453125 C 184.585938 33.578125 185.835938 33.761719 187.082031 34.011719 C 188.324219 34.257812 189.554688 34.566406 190.769531 34.933594 C 191.984375 35.304688 193.175781 35.730469 194.347656 36.214844 C 195.519531 36.699219 196.664062 37.242188 197.785156 37.839844 C 198.902344 38.4375 199.988281 39.089844 201.042969 39.792969 C 202.097656 40.5 203.117188 41.253906 204.097656 42.058594 C 205.078125 42.863281 206.015625 43.714844 206.914062 44.613281 C 207.808594 45.507812 208.660156 46.449219 209.464844 47.429688 C 210.269531 48.410156 211.023438 49.425781 211.730469 50.480469 C 212.433594 51.535156 213.085938 52.621094 213.683594 53.742188 C 214.28125 54.859375 214.824219 56.003906 215.308594 57.175781 C 215.792969 58.351562 216.222656 59.542969 216.589844 60.757812 C 216.957031 61.96875 217.265625 63.199219 217.511719 64.445312 C 217.761719 65.6875 217.945312 66.941406 218.070312 68.203125 C 218.195312 69.464844 218.257812 70.730469 218.257812 72 C 218.257812 73.269531 218.195312 74.535156 218.070312 75.796875 C 217.945312 77.058594 217.761719 78.3125 217.511719 79.554688 C 217.265625 80.800781 216.957031 82.03125 216.589844 83.242188 C 216.222656 84.457031 215.792969 85.648438 215.308594 86.824219 C 214.824219 87.996094 214.28125 89.140625 213.683594 90.257812 C 213.085938 91.378906 212.433594 92.464844 211.730469 93.519531 C 211.023438 94.574219 210.269531 95.589844 209.464844 96.570312 C 208.660156 97.550781 207.808594 98.492188 206.914062 99.386719 C 206.015625 100.285156 205.078125 101.136719 204.097656 101.941406 C 203.117188 102.746094 202.097656 103.5 201.042969 104.207031 C 199.988281 104.910156 198.902344 105.5625 197.785156 106.160156 C 196.664062 106.757812 195.519531 107.300781 194.347656 107.785156 C 193.175781 108.269531 191.984375 108.695312 190.769531 109.066406 C 189.554688 109.433594 188.324219 109.742188 187.082031 109.988281 C 185.835938 110.238281 184.585938 110.421875 183.320312 110.546875 C 182.058594 110.671875 180.792969 110.734375 179.527344 110.734375 C 178.257812 110.734375 176.992188 110.671875 175.730469 110.546875 C 174.464844 110.421875 173.214844 110.238281 171.96875 109.988281 C 170.726562 109.742188 169.496094 109.433594 168.28125 109.066406 C 167.066406 108.699219 165.875 108.273438 164.703125 107.785156 C 163.53125 107.300781 162.386719 106.757812 161.265625 106.160156 C 160.148438 105.5625 159.0625 104.910156 158.007812 104.207031 C 156.953125 103.503906 155.933594 102.746094 154.953125 101.941406 C 153.972656 101.136719 153.035156 100.289062 152.136719 99.390625 C 151.238281 98.492188 150.386719 97.554688 149.582031 96.574219 C 148.777344 95.59375 148.023438 94.574219 147.320312 93.519531 C 146.613281 92.464844 145.960938 91.378906 145.363281 90.261719 C 144.765625 89.140625 144.222656 87.996094 143.738281 86.824219 C 143.253906 85.652344 142.824219 84.460938 142.457031 83.246094 C 142.089844 82.03125 141.78125 80.800781 141.535156 79.558594 C 141.285156 78.3125 141.101562 77.058594 140.976562 75.796875 C 140.851562 74.535156 140.789062 73.269531 140.789062 72 C 140.789062 70.730469 140.851562 69.464844 140.976562 68.203125 C 141.101562 66.941406 141.285156 65.6875 141.535156 64.441406 C 141.78125 63.199219 142.089844 61.96875 142.457031 60.753906 C 142.824219 59.539062 143.253906 58.347656 143.738281 57.175781 C 144.222656 56.003906 144.765625 54.859375 145.363281 53.738281 C 145.960938 52.621094 146.613281 51.535156 147.320312 50.480469 C 148.023438 49.425781 148.777344 48.40625 149.582031 47.425781 C 150.386719 46.445312 151.238281 45.507812 152.136719 44.609375 Z M 152.136719 44.609375 " fill-opacity="1" fill-rule="evenodd"/><path fill="#ff695a" d="M 154.617188 47.089844 C 155.347656 46.359375 156.109375 45.664062 156.902344 45 C 157.691406 44.335938 158.511719 43.707031 159.359375 43.117188 C 160.207031 42.527344 161.078125 41.972656 161.972656 41.457031 C 162.867188 40.945312 163.785156 40.46875 164.722656 40.035156 C 165.660156 39.601562 166.613281 39.210938 167.585938 38.859375 C 168.558594 38.507812 169.542969 38.203125 170.542969 37.9375 C 171.542969 37.675781 172.550781 37.457031 173.566406 37.28125 C 174.585938 37.109375 175.609375 36.976562 176.640625 36.894531 C 177.667969 36.808594 178.699219 36.769531 179.734375 36.777344 C 180.765625 36.78125 181.796875 36.832031 182.824219 36.929688 C 183.855469 37.027344 184.875 37.167969 185.890625 37.355469 C 186.90625 37.542969 187.914062 37.773438 188.910156 38.046875 C 189.90625 38.324219 190.886719 38.640625 191.855469 39.003906 C 192.820312 39.367188 193.773438 39.769531 194.703125 40.214844 C 195.636719 40.660156 196.546875 41.144531 197.4375 41.667969 C 198.324219 42.195312 199.191406 42.757812 200.03125 43.359375 C 200.871094 43.960938 201.683594 44.597656 202.464844 45.269531 C 203.25 45.941406 204.003906 46.648438 204.722656 47.386719 C 205.445312 48.128906 206.132812 48.894531 206.789062 49.695312 C 207.441406 50.496094 208.058594 51.320312 208.640625 52.175781 C 209.222656 53.03125 209.765625 53.90625 210.269531 54.808594 C 210.773438 55.710938 211.238281 56.632812 211.660156 57.574219 C 212.082031 58.515625 212.464844 59.476562 212.804688 60.453125 C 213.140625 61.429688 213.4375 62.417969 213.6875 63.417969 C 213.941406 64.421875 214.148438 65.429688 214.3125 66.453125 C 214.472656 67.472656 214.589844 68.496094 214.664062 69.527344 C 214.738281 70.558594 214.761719 71.589844 214.746094 72.621094 C 214.726562 73.65625 214.664062 74.683594 214.554688 75.710938 C 214.445312 76.738281 214.292969 77.761719 214.09375 78.773438 C 213.894531 79.789062 213.652344 80.789062 213.367188 81.78125 C 213.078125 82.773438 212.75 83.753906 212.375 84.714844 C 212.003906 85.679688 211.589844 86.625 211.132812 87.550781 C 207.855469 81.128906 201.320312 77.125 194.492188 74.957031 C 194.882812 74.484375 195.253906 73.996094 195.601562 73.492188 C 195.949219 72.984375 196.269531 72.464844 196.566406 71.925781 C 196.863281 71.390625 197.136719 70.839844 197.382812 70.277344 C 197.628906 69.714844 197.847656 69.140625 198.039062 68.558594 C 198.230469 67.976562 198.394531 67.386719 198.53125 66.785156 C 198.664062 66.1875 198.773438 65.585938 198.851562 64.976562 C 198.929688 64.367188 198.980469 63.757812 199 63.144531 C 199.023438 62.527344 199.015625 61.917969 198.976562 61.304688 C 198.941406 60.691406 198.875 60.082031 198.78125 59.476562 C 198.683594 58.867188 198.5625 58.269531 198.410156 57.671875 C 198.257812 57.078125 198.082031 56.492188 197.875 55.914062 C 197.667969 55.335938 197.433594 54.769531 197.171875 54.214844 C 196.914062 53.65625 196.628906 53.113281 196.316406 52.585938 C 196.003906 52.058594 195.667969 51.542969 195.308594 51.046875 C 194.949219 50.550781 194.566406 50.070312 194.160156 49.609375 C 193.757812 49.148438 193.328125 48.707031 192.882812 48.285156 C 192.4375 47.867188 191.96875 47.46875 191.484375 47.089844 C 191 46.714844 190.5 46.359375 189.980469 46.03125 C 189.464844 45.703125 188.933594 45.398438 188.386719 45.117188 C 187.839844 44.839844 187.28125 44.585938 186.710938 44.359375 C 186.140625 44.132812 185.558594 43.933594 184.96875 43.765625 C 184.378906 43.59375 183.785156 43.449219 183.183594 43.332031 C 182.578125 43.21875 181.972656 43.132812 181.359375 43.074219 C 180.75 43.015625 180.136719 42.988281 179.523438 42.988281 C 178.910156 42.988281 178.296875 43.015625 177.6875 43.074219 C 177.074219 43.132812 176.46875 43.21875 175.867188 43.332031 C 175.261719 43.449219 174.667969 43.59375 174.078125 43.765625 C 173.488281 43.933594 172.90625 44.132812 172.335938 44.359375 C 171.765625 44.585938 171.207031 44.839844 170.660156 45.117188 C 170.113281 45.398438 169.582031 45.703125 169.066406 46.03125 C 168.546875 46.359375 168.046875 46.714844 167.5625 47.089844 C 167.078125 47.46875 166.609375 47.867188 166.164062 48.285156 C 165.71875 48.707031 165.292969 49.148438 164.886719 49.609375 C 164.480469 50.070312 164.097656 50.550781 163.738281 51.046875 C 163.378906 51.542969 163.042969 52.058594 162.730469 52.585938 C 162.417969 53.113281 162.132812 53.65625 161.875 54.214844 C 161.613281 54.769531 161.378906 55.335938 161.171875 55.914062 C 160.964844 56.492188 160.789062 57.078125 160.636719 57.671875 C 160.484375 58.269531 160.363281 58.867188 160.269531 59.476562 C 160.171875 60.082031 160.105469 60.691406 160.070312 61.304688 C 160.035156 61.917969 160.027344 62.527344 160.046875 63.144531 C 160.066406 63.757812 160.117188 64.367188 160.195312 64.976562 C 160.273438 65.585938 160.382812 66.1875 160.519531 66.785156 C 160.652344 67.386719 160.816406 67.976562 161.007812 68.558594 C 161.199219 69.140625 161.417969 69.714844 161.664062 70.277344 C 161.910156 70.839844 162.183594 71.390625 162.480469 71.925781 C 162.777344 72.464844 163.101562 72.984375 163.445312 73.492188 C 163.792969 73.996094 164.164062 74.484375 164.558594 74.957031 C 157.730469 77.125 151.191406 81.128906 147.914062 87.550781 C 147.109375 85.910156 146.433594 84.21875 145.890625 82.472656 C 145.347656 80.730469 144.941406 78.953125 144.675781 77.144531 C 144.410156 75.335938 144.285156 73.519531 144.300781 71.691406 C 144.316406 69.863281 144.472656 68.046875 144.773438 66.246094 C 145.070312 64.441406 145.507812 62.671875 146.082031 60.9375 C 146.65625 59.203125 147.359375 57.523438 148.195312 55.898438 C 149.03125 54.269531 149.988281 52.71875 151.0625 51.242188 C 152.140625 49.765625 153.324219 48.382812 154.617188 47.089844 Z M 154.617188 47.089844 " fill-opacity="1" fill-rule="evenodd"/><path fill="#ff695a" d="M 150.113281 91.386719 C 152.386719 84.492188 159.195312 79.953125 167.453125 77.769531 C 168.304688 78.445312 169.210938 79.042969 170.164062 79.566406 C 171.117188 80.089844 172.105469 80.527344 173.132812 80.886719 C 174.160156 81.242188 175.210938 81.511719 176.285156 81.691406 C 177.355469 81.875 178.4375 81.964844 179.523438 81.964844 C 180.609375 81.964844 181.691406 81.875 182.761719 81.691406 C 183.835938 81.511719 184.886719 81.242188 185.914062 80.886719 C 186.941406 80.527344 187.929688 80.089844 188.882812 79.566406 C 189.839844 79.042969 190.742188 78.445312 191.59375 77.769531 C 199.851562 79.953125 206.660156 84.492188 208.933594 91.386719 C 196.6875 109.925781 170.4375 112.722656 154.617188 96.902344 C 152.929688 95.214844 151.425781 93.375 150.113281 91.386719 Z M 150.113281 91.386719 " fill-opacity="1" fill-rule="evenodd"/><path fill="#ff695a" d="M 179.523438 46.492188 C 180.046875 46.492188 180.570312 46.519531 181.089844 46.570312 C 181.609375 46.621094 182.128906 46.699219 182.640625 46.800781 C 183.15625 46.902344 183.660156 47.027344 184.164062 47.179688 C 184.664062 47.332031 185.15625 47.507812 185.636719 47.707031 C 186.121094 47.910156 186.59375 48.132812 187.054688 48.378906 C 187.519531 48.625 187.964844 48.894531 188.402344 49.183594 C 188.835938 49.476562 189.257812 49.789062 189.660156 50.121094 C 190.066406 50.453125 190.453125 50.800781 190.824219 51.171875 C 191.191406 51.542969 191.542969 51.929688 191.875 52.335938 C 192.207031 52.738281 192.519531 53.160156 192.808594 53.59375 C 193.101562 54.027344 193.371094 54.476562 193.617188 54.9375 C 193.863281 55.402344 194.085938 55.871094 194.285156 56.355469 C 194.488281 56.839844 194.664062 57.332031 194.816406 57.832031 C 194.964844 58.332031 195.09375 58.839844 195.195312 59.355469 C 195.296875 59.867188 195.375 60.382812 195.425781 60.90625 C 195.476562 61.425781 195.503906 61.949219 195.503906 62.472656 C 195.503906 62.996094 195.476562 63.515625 195.425781 64.039062 C 195.375 64.558594 195.296875 65.074219 195.195312 65.589844 C 195.09375 66.101562 194.964844 66.609375 194.816406 67.109375 C 194.664062 67.609375 194.488281 68.101562 194.285156 68.585938 C 194.085938 69.070312 193.863281 69.542969 193.617188 70.003906 C 193.371094 70.464844 193.101562 70.914062 192.808594 71.347656 C 192.519531 71.785156 192.207031 72.203125 191.875 72.609375 C 191.542969 73.011719 191.191406 73.398438 190.824219 73.769531 C 190.453125 74.140625 190.066406 74.492188 189.660156 74.824219 C 189.257812 75.15625 188.835938 75.46875 188.402344 75.757812 C 187.964844 76.046875 187.519531 76.316406 187.054688 76.5625 C 186.59375 76.808594 186.121094 77.035156 185.636719 77.234375 C 185.15625 77.433594 184.664062 77.609375 184.160156 77.761719 C 183.660156 77.914062 183.152344 78.042969 182.640625 78.144531 C 182.128906 78.246094 181.609375 78.324219 181.089844 78.375 C 180.570312 78.425781 180.046875 78.449219 179.523438 78.449219 C 179 78.449219 178.476562 78.425781 177.957031 78.375 C 177.4375 78.324219 176.917969 78.246094 176.40625 78.144531 C 175.894531 78.042969 175.386719 77.914062 174.886719 77.761719 C 174.382812 77.609375 173.890625 77.433594 173.410156 77.234375 C 172.925781 77.035156 172.453125 76.808594 171.992188 76.5625 C 171.53125 76.316406 171.082031 76.046875 170.644531 75.757812 C 170.210938 75.464844 169.792969 75.15625 169.386719 74.824219 C 168.980469 74.492188 168.59375 74.140625 168.226562 73.769531 C 167.855469 73.398438 167.503906 73.011719 167.171875 72.609375 C 166.839844 72.203125 166.527344 71.785156 166.238281 71.347656 C 165.945312 70.914062 165.679688 70.464844 165.429688 70.003906 C 165.183594 69.542969 164.960938 69.070312 164.761719 68.585938 C 164.5625 68.101562 164.382812 67.609375 164.234375 67.109375 C 164.082031 66.609375 163.953125 66.101562 163.851562 65.589844 C 163.75 65.074219 163.671875 64.558594 163.621094 64.039062 C 163.570312 63.515625 163.542969 62.996094 163.542969 62.472656 C 163.542969 61.949219 163.570312 61.425781 163.621094 60.90625 C 163.671875 60.382812 163.75 59.867188 163.851562 59.355469 C 163.953125 58.839844 164.078125 58.332031 164.230469 57.832031 C 164.382812 57.332031 164.558594 56.839844 164.761719 56.355469 C 164.960938 55.871094 165.183594 55.398438 165.429688 54.9375 C 165.675781 54.476562 165.945312 54.027344 166.238281 53.59375 C 166.527344 53.15625 166.839844 52.738281 167.171875 52.332031 C 167.503906 51.929688 167.855469 51.542969 168.222656 51.171875 C 168.59375 50.800781 168.980469 50.449219 169.386719 50.117188 C 169.789062 49.785156 170.210938 49.476562 170.644531 49.183594 C 171.082031 48.894531 171.527344 48.625 171.992188 48.378906 C 172.453125 48.132812 172.925781 47.90625 173.410156 47.707031 C 173.890625 47.507812 174.382812 47.332031 174.886719 47.179688 C 175.386719 47.027344 175.894531 46.902344 176.40625 46.796875 C 176.917969 46.695312 177.4375 46.621094 177.957031 46.570312 C 178.476562 46.519531 179 46.492188 179.523438 46.492188 Z M 179.523438 46.492188 " fill-opacity="1" fill-rule="evenodd"/><g clip-path="url(#cd0e3e5e9c)"><path fill="#2e3760" d="M 107.527344 134.394531 C 107.742188 128.371094 112.429688 124.386719 118.5625 122.429688 C 119.210938 123.003906 119.90625 123.515625 120.652344 123.964844 C 121.394531 124.414062 122.171875 124.789062 122.984375 125.097656 C 123.796875 125.40625 124.628906 125.636719 125.480469 125.792969 C 126.335938 125.949219 127.195312 126.027344 128.066406 126.027344 C 128.933594 126.027344 129.792969 125.949219 130.648438 125.792969 C 131.5 125.636719 132.332031 125.40625 133.144531 125.097656 C 133.957031 124.789062 134.734375 124.414062 135.476562 123.964844 C 136.222656 123.515625 136.917969 123.003906 137.566406 122.429688 C 143.699219 124.386719 148.386719 128.371094 148.601562 134.394531 L 148.601562 144 L 107.527344 144 Z M 107.527344 134.394531 " fill-opacity="1" fill-rule="evenodd"/></g><path fill="#2e3760" d="M 128.058594 100.792969 C 128.773438 100.792969 129.480469 100.863281 130.179688 101 C 130.878906 101.140625 131.558594 101.347656 132.214844 101.621094 C 132.875 101.890625 133.5 102.226562 134.09375 102.625 C 134.6875 103.019531 135.234375 103.46875 135.738281 103.972656 C 136.242188 104.476562 136.695312 105.027344 137.089844 105.621094 C 137.488281 106.210938 137.820312 106.839844 138.09375 107.496094 C 138.367188 108.15625 138.574219 108.835938 138.710938 109.535156 C 138.851562 110.234375 138.921875 110.941406 138.921875 111.652344 C 138.921875 112.367188 138.851562 113.074219 138.710938 113.773438 C 138.574219 114.472656 138.367188 115.148438 138.09375 115.808594 C 137.820312 116.46875 137.488281 117.09375 137.089844 117.6875 C 136.695312 118.28125 136.242188 118.828125 135.738281 119.332031 C 135.234375 119.835938 134.6875 120.285156 134.09375 120.683594 C 133.5 121.078125 132.875 121.414062 132.214844 121.6875 C 131.558594 121.960938 130.878906 122.164062 130.179688 122.304688 C 129.480469 122.445312 128.773438 122.511719 128.058594 122.511719 C 127.347656 122.511719 126.640625 122.445312 125.941406 122.304688 C 125.242188 122.164062 124.5625 121.960938 123.90625 121.6875 C 123.246094 121.414062 122.621094 121.078125 122.027344 120.683594 C 121.433594 120.285156 120.886719 119.835938 120.382812 119.332031 C 119.875 118.828125 119.425781 118.28125 119.03125 117.6875 C 118.632812 117.09375 118.300781 116.46875 118.027344 115.808594 C 117.753906 115.152344 117.546875 114.472656 117.410156 113.773438 C 117.269531 113.074219 117.199219 112.367188 117.199219 111.652344 C 117.199219 110.941406 117.269531 110.234375 117.410156 109.535156 C 117.546875 108.835938 117.753906 108.15625 118.027344 107.496094 C 118.300781 106.839844 118.632812 106.210938 119.03125 105.621094 C 119.425781 105.027344 119.875 104.476562 120.382812 103.972656 C 120.886719 103.46875 121.433594 103.019531 122.027344 102.625 C 122.621094 102.226562 123.246094 101.890625 123.902344 101.621094 C 124.5625 101.347656 125.242188 101.140625 125.941406 101 C 126.640625 100.863281 127.347656 100.792969 128.058594 100.792969 Z M 128.058594 100.792969 " fill-opacity="1" fill-rule="evenodd"/><path fill="#ff695a" d="M 181.28125 137.140625 C 181.28125 137.371094 181.238281 137.597656 181.148438 137.8125 C 181.058594 138.027344 180.929688 138.214844 180.765625 138.378906 C 180.601562 138.546875 180.410156 138.671875 180.195312 138.761719 C 179.980469 138.851562 179.757812 138.894531 179.523438 138.894531 C 179.289062 138.894531 179.066406 138.851562 178.851562 138.761719 C 178.636719 138.671875 178.445312 138.546875 178.28125 138.378906 C 178.117188 138.214844 177.988281 138.027344 177.898438 137.8125 C 177.808594 137.597656 177.765625 137.371094 177.765625 137.140625 L 177.765625 125.269531 C 177.765625 125.035156 177.808594 124.8125 177.898438 124.597656 C 177.988281 124.382812 178.117188 124.191406 178.28125 124.027344 C 178.445312 123.863281 178.636719 123.734375 178.851562 123.648438 C 179.066406 123.558594 179.289062 123.515625 179.523438 123.515625 C 179.757812 123.515625 179.980469 123.558594 180.195312 123.648438 C 180.410156 123.734375 180.601562 123.863281 180.765625 124.027344 C 180.929688 124.191406 181.058594 124.382812 181.148438 124.597656 C 181.238281 124.8125 181.28125 125.035156 181.28125 125.269531 Z M 160.558594 9.582031 C 160.496094 9.355469 160.480469 9.128906 160.511719 8.898438 C 160.542969 8.667969 160.617188 8.453125 160.730469 8.25 C 160.847656 8.046875 161 7.875 161.183594 7.734375 C 161.367188 7.59375 161.574219 7.492188 161.796875 7.433594 C 162.023438 7.371094 162.25 7.359375 162.480469 7.390625 C 162.710938 7.417969 162.925781 7.492188 163.128906 7.609375 C 163.328125 7.726562 163.5 7.878906 163.640625 8.0625 C 163.78125 8.246094 163.882812 8.453125 163.941406 8.675781 L 167.019531 20.152344 C 167.082031 20.375 167.097656 20.601562 167.066406 20.832031 C 167.035156 21.0625 166.960938 21.28125 166.847656 21.480469 C 166.730469 21.683594 166.578125 21.855469 166.394531 21.996094 C 166.210938 22.136719 166.003906 22.238281 165.78125 22.296875 C 165.554688 22.359375 165.328125 22.371094 165.097656 22.34375 C 164.867188 22.3125 164.652344 22.238281 164.449219 22.121094 C 164.25 22.003906 164.078125 21.855469 163.9375 21.667969 C 163.796875 21.484375 163.695312 21.28125 163.636719 21.054688 Z M 177.765625 6.851562 C 177.765625 6.617188 177.8125 6.394531 177.902344 6.179688 C 177.992188 5.96875 178.117188 5.777344 178.285156 5.613281 C 178.449219 5.449219 178.636719 5.324219 178.851562 5.234375 C 179.066406 5.148438 179.292969 5.101562 179.523438 5.101562 C 179.757812 5.101562 179.980469 5.148438 180.195312 5.234375 C 180.410156 5.324219 180.597656 5.449219 180.765625 5.613281 C 180.929688 5.777344 181.054688 5.96875 181.144531 6.179688 C 181.234375 6.394531 181.28125 6.617188 181.28125 6.851562 L 181.28125 18.730469 C 181.285156 18.964844 181.238281 19.191406 181.148438 19.40625 C 181.0625 19.621094 180.933594 19.8125 180.769531 19.980469 C 180.605469 20.144531 180.414062 20.273438 180.199219 20.363281 C 179.980469 20.449219 179.757812 20.496094 179.523438 20.496094 C 179.289062 20.496094 179.066406 20.449219 178.847656 20.363281 C 178.632812 20.273438 178.441406 20.144531 178.277344 19.980469 C 178.113281 19.8125 177.984375 19.621094 177.898438 19.40625 C 177.808594 19.191406 177.765625 18.964844 177.765625 18.730469 Z M 195.105469 8.675781 C 195.164062 8.453125 195.265625 8.246094 195.40625 8.0625 C 195.546875 7.878906 195.71875 7.726562 195.917969 7.609375 C 196.121094 7.492188 196.335938 7.421875 196.566406 7.390625 C 196.796875 7.359375 197.023438 7.375 197.25 7.433594 C 197.472656 7.492188 197.679688 7.59375 197.863281 7.734375 C 198.046875 7.878906 198.199219 8.050781 198.316406 8.25 C 198.429688 8.453125 198.503906 8.667969 198.535156 8.898438 C 198.566406 9.128906 198.550781 9.355469 198.488281 9.582031 L 195.410156 21.054688 C 195.351562 21.28125 195.25 21.484375 195.109375 21.671875 C 194.96875 21.855469 194.796875 22.007812 194.597656 22.121094 C 194.394531 22.238281 194.179688 22.3125 193.949219 22.34375 C 193.71875 22.375 193.492188 22.359375 193.265625 22.300781 C 193.039062 22.238281 192.835938 22.140625 192.652344 21.996094 C 192.46875 21.855469 192.316406 21.683594 192.199219 21.480469 C 192.085938 21.28125 192.011719 21.066406 191.980469 20.832031 C 191.949219 20.601562 191.964844 20.375 192.027344 20.152344 Z M 163.941406 135.324219 C 163.882812 135.546875 163.785156 135.753906 163.640625 135.9375 C 163.5 136.125 163.328125 136.273438 163.128906 136.390625 C 162.925781 136.507812 162.710938 136.582031 162.480469 136.613281 C 162.25 136.644531 162.023438 136.628906 161.796875 136.570312 C 161.570312 136.507812 161.367188 136.40625 161.183594 136.265625 C 160.996094 136.125 160.847656 135.953125 160.730469 135.75 C 160.613281 135.550781 160.542969 135.332031 160.511719 135.101562 C 160.480469 134.871094 160.496094 134.644531 160.558594 134.417969 L 163.636719 122.945312 C 163.695312 122.71875 163.796875 122.515625 163.9375 122.332031 C 164.078125 122.148438 164.25 121.996094 164.453125 121.878906 C 164.652344 121.765625 164.867188 121.691406 165.097656 121.660156 C 165.328125 121.628906 165.554688 121.644531 165.78125 121.703125 C 166.003906 121.765625 166.210938 121.863281 166.394531 122.007812 C 166.578125 122.148438 166.730469 122.320312 166.84375 122.519531 C 166.960938 122.722656 167.035156 122.9375 167.066406 123.167969 C 167.09375 123.398438 167.082031 123.625 167.019531 123.847656 Z M 198.488281 134.417969 C 198.550781 134.644531 198.566406 134.871094 198.535156 135.101562 C 198.503906 135.332031 198.433594 135.546875 198.316406 135.75 C 198.199219 135.953125 198.050781 136.125 197.863281 136.265625 C 197.679688 136.40625 197.476562 136.507812 197.25 136.566406 C 197.027344 136.628906 196.796875 136.640625 196.566406 136.613281 C 196.335938 136.582031 196.121094 136.507812 195.917969 136.390625 C 195.71875 136.273438 195.546875 136.121094 195.40625 135.9375 C 195.265625 135.753906 195.164062 135.546875 195.105469 135.324219 L 192.027344 123.847656 C 191.964844 123.625 191.949219 123.398438 191.980469 123.167969 C 192.011719 122.9375 192.085938 122.71875 192.199219 122.519531 C 192.316406 122.316406 192.46875 122.144531 192.652344 122.003906 C 192.835938 121.863281 193.042969 121.761719 193.265625 121.703125 C 193.492188 121.640625 193.71875 121.625 193.949219 121.65625 C 194.179688 121.6875 194.394531 121.761719 194.597656 121.878906 C 194.796875 121.996094 194.96875 122.144531 195.109375 122.332031 C 195.25 122.515625 195.351562 122.71875 195.410156 122.945312 Z M 198.488281 134.417969 " fill-opacity="1" fill-rule="nonzero"/><g fill="#ffffff" fill-opacity="1"><g transform="translate(13.685527, 205.057172)"><g><path d="M 20.703125 -34.078125 L 24.90625 -34.078125 C 29.007812 -34.078125 32.039062 -34.757812 34 -36.125 C 35.957031 -37.5 36.9375 -39.65625 36.9375 -42.59375 C 36.9375 -45.5 35.9375 -47.566406 33.9375 -48.796875 C 31.9375 -50.023438 28.84375 -50.640625 24.65625 -50.640625 L 20.703125 -50.640625 Z M 20.703125 -23.515625 L 20.703125 0 L 7.71875 0 L 7.71875 -61.296875 L 25.578125 -61.296875 C 33.898438 -61.296875 40.0625 -59.773438 44.0625 -56.734375 C 48.0625 -53.703125 50.0625 -49.101562 50.0625 -42.9375 C 50.0625 -39.320312 49.066406 -36.109375 47.078125 -33.296875 C 45.097656 -30.492188 42.289062 -28.296875 38.65625 -26.703125 C 47.875 -12.921875 53.882812 -4.019531 56.6875 0 L 42.265625 0 L 27.625 -23.515625 Z M 20.703125 -23.515625 "/></g></g></g><g fill="#ffffff" fill-opacity="1"><g transform="translate(70.360969, 205.057172)"><g><path d="M 26.125 -38.65625 C 23.40625 -38.65625 21.273438 -37.796875 19.734375 -36.078125 C 18.203125 -34.359375 17.328125 -31.921875 17.109375 -28.765625 L 35.046875 -28.765625 C 34.992188 -31.921875 34.171875 -34.359375 32.578125 -36.078125 C 30.984375 -37.796875 28.832031 -38.65625 26.125 -38.65625 Z M 27.921875 0.84375 C 20.378906 0.84375 14.484375 -1.238281 10.234375 -5.40625 C 5.984375 -9.570312 3.859375 -15.46875 3.859375 -23.09375 C 3.859375 -30.945312 5.820312 -37.019531 9.75 -41.3125 C 13.675781 -45.601562 19.101562 -47.75 26.03125 -47.75 C 32.65625 -47.75 37.8125 -45.863281 41.5 -42.09375 C 45.1875 -38.320312 47.03125 -33.109375 47.03125 -26.453125 L 47.03125 -20.25 L 16.8125 -20.25 C 16.945312 -16.613281 18.019531 -13.773438 20.03125 -11.734375 C 22.050781 -9.691406 24.878906 -8.671875 28.515625 -8.671875 C 31.335938 -8.671875 34.003906 -8.960938 36.515625 -9.546875 C 39.023438 -10.140625 41.648438 -11.082031 44.390625 -12.375 L 44.390625 -2.46875 C 42.160156 -1.351562 39.769531 -0.523438 37.21875 0.015625 C 34.675781 0.566406 31.578125 0.84375 27.921875 0.84375 Z M 27.921875 0.84375 "/></g></g></g><g fill="#ffffff" fill-opacity="1"><g transform="translate(121.083813, 205.057172)"><g><path d="M 25.734375 0.84375 C 11.148438 0.84375 3.859375 -7.164062 3.859375 -23.1875 C 3.859375 -31.144531 5.84375 -37.226562 9.8125 -41.4375 C 13.78125 -45.644531 19.46875 -47.75 26.875 -47.75 C 32.289062 -47.75 37.15625 -46.6875 41.46875 -44.5625 L 37.6875 -34.671875 C 35.675781 -35.484375 33.800781 -36.144531 32.0625 -36.65625 C 30.332031 -37.175781 28.601562 -37.4375 26.875 -37.4375 C 20.21875 -37.4375 16.890625 -32.710938 16.890625 -23.265625 C 16.890625 -14.097656 20.21875 -9.515625 26.875 -9.515625 C 29.332031 -9.515625 31.609375 -9.84375 33.703125 -10.5 C 35.796875 -11.15625 37.894531 -12.179688 40 -13.578125 L 40 -2.640625 C 37.925781 -1.328125 35.832031 -0.421875 33.71875 0.078125 C 31.613281 0.585938 28.953125 0.84375 25.734375 0.84375 Z M 25.734375 0.84375 "/></g></g></g><g fill="#ffffff" fill-opacity="1"><g transform="translate(165.225263, 205.057172)"><g><path d="M 32.875 -47.75 C 34.601562 -47.75 36.039062 -47.625 37.1875 -47.375 L 36.21875 -35.390625 C 35.1875 -35.660156 33.929688 -35.796875 32.453125 -35.796875 C 28.367188 -35.796875 25.1875 -34.75 22.90625 -32.65625 C 20.632812 -30.5625 19.5 -27.628906 19.5 -23.859375 L 19.5 0 L 6.703125 0 L 6.703125 -46.875 L 16.390625 -46.875 L 18.28125 -38.984375 L 18.90625 -38.984375 C 20.363281 -41.617188 22.328125 -43.738281 24.796875 -45.34375 C 27.273438 -46.945312 29.96875 -47.75 32.875 -47.75 Z M 32.875 -47.75 "/></g></g></g><g fill="#ffffff" fill-opacity="1"><g transform="translate(204.210589, 205.057172)"><g><path d="M 39.90625 0 L 38.1875 -6 L 37.515625 -6 C 36.148438 -3.8125 34.207031 -2.125 31.6875 -0.9375 C 29.175781 0.25 26.3125 0.84375 23.09375 0.84375 C 17.59375 0.84375 13.441406 -0.628906 10.640625 -3.578125 C 7.847656 -6.523438 6.453125 -10.769531 6.453125 -16.3125 L 6.453125 -46.875 L 19.25 -46.875 L 19.25 -19.5 C 19.25 -16.113281 19.847656 -13.570312 21.046875 -11.875 C 22.242188 -10.1875 24.160156 -9.34375 26.796875 -9.34375 C 30.367188 -9.34375 32.953125 -10.535156 34.546875 -12.921875 C 36.140625 -15.316406 36.9375 -19.28125 36.9375 -24.8125 L 36.9375 -46.875 L 49.71875 -46.875 L 49.71875 0 Z M 39.90625 0 "/></g></g></g><g fill="#ffffff" fill-opacity="1"><g transform="translate(260.634501, 205.057172)"><g><path d="M 26.453125 -9.34375 C 28.691406 -9.34375 31.375 -9.832031 34.5 -10.8125 L 34.5 -1.296875 C 31.3125 0.128906 27.398438 0.84375 22.765625 0.84375 C 17.648438 0.84375 13.925781 -0.445312 11.59375 -3.03125 C 9.257812 -5.625 8.09375 -9.503906 8.09375 -14.671875 L 8.09375 -37.265625 L 1.96875 -37.265625 L 1.96875 -42.671875 L 9.015625 -46.953125 L 12.703125 -56.84375 L 20.875 -56.84375 L 20.875 -46.875 L 34 -46.875 L 34 -37.265625 L 20.875 -37.265625 L 20.875 -14.671875 C 20.875 -12.859375 21.382812 -11.515625 22.40625 -10.640625 C 23.425781 -9.773438 24.773438 -9.34375 26.453125 -9.34375 Z M 26.453125 -9.34375 "/></g></g></g><g fill="#ffffff" fill-opacity="1"><g transform="translate(297.901131, 205.057172)"><g><path d="M 6.15625 -58.984375 C 6.15625 -63.148438 8.476562 -65.234375 13.125 -65.234375 C 17.757812 -65.234375 20.078125 -63.148438 20.078125 -58.984375 C 20.078125 -57.003906 19.5 -55.460938 18.34375 -54.359375 C 17.1875 -53.253906 15.445312 -52.703125 13.125 -52.703125 C 8.476562 -52.703125 6.15625 -54.796875 6.15625 -58.984375 Z M 19.5 0 L 6.703125 0 L 6.703125 -46.875 L 19.5 -46.875 Z M 19.5 0 "/></g></g></g><g fill="#ffffff" fill-opacity="1"><g transform="translate(324.100958, 205.057172)"><g><path d="M 16.3125 -23.9375 L 1.21875 -46.875 L 15.71875 -46.875 L 24.8125 -31.953125 L 34 -46.875 L 48.5 -46.875 L 33.25 -23.9375 L 49.21875 0 L 34.671875 0 L 24.8125 -16.0625 L 14.921875 0 L 0.421875 0 Z M 16.3125 -23.9375 "/></g></g></g></svg>