<svg xmlns="http://www.w3.org/2000/svg" xmlns:xlink="http://www.w3.org/1999/xlink" width="500" zoomAndPan="magnify" viewBox="0 0 375 374.999991" height="500" preserveAspectRatio="xMidYMid meet" version="1.0"><defs><g/><clipPath id="bfff67ac85"><path d="M 90 146 L 123.96875 146 L 123.96875 164 L 90 164 Z M 90 146 " clip-rule="nonzero"/></clipPath><clipPath id="250f0305c0"><path d="M 98 128.511719 L 117 128.511719 L 117 147 L 98 147 Z M 98 128.511719 " clip-rule="nonzero"/></clipPath><clipPath id="b3167c8c48"><path d="M 6.21875 146 L 40 146 L 40 164 L 6.21875 164 Z M 6.21875 146 " clip-rule="nonzero"/></clipPath><clipPath id="b8c9c6f544"><path d="M 14 128.511719 L 32 128.511719 L 32 147 L 14 147 Z M 14 128.511719 " clip-rule="nonzero"/></clipPath><clipPath id="52eb6303cf"><path d="M 100 187 L 123.96875 187 L 123.96875 206 L 100 206 Z M 100 187 " clip-rule="nonzero"/></clipPath><clipPath id="43872d538e"><path d="M 6.21875 187 L 30 187 L 30 206 L 6.21875 206 Z M 6.21875 187 " clip-rule="nonzero"/></clipPath><clipPath id="158eaa8799"><path d="M 6.21875 228 L 40 228 L 40 246.261719 L 6.21875 246.261719 Z M 6.21875 228 " clip-rule="nonzero"/></clipPath></defs><g clip-path="url(#bfff67ac85)"><path fill="#2e3760" d="M 90.378906 155.984375 C 90.554688 151.058594 94.390625 147.804688 99.402344 146.203125 C 99.933594 146.671875 100.503906 147.089844 101.113281 147.457031 C 101.71875 147.824219 102.355469 148.132812 103.019531 148.382812 C 103.683594 148.636719 104.363281 148.824219 105.0625 148.953125 C 105.761719 149.078125 106.464844 149.144531 107.175781 149.144531 C 107.882812 149.144531 108.585938 149.078125 109.285156 148.953125 C 109.984375 148.824219 110.664062 148.636719 111.328125 148.382812 C 111.992188 148.132812 112.628906 147.824219 113.234375 147.457031 C 113.84375 147.089844 114.414062 146.671875 114.945312 146.203125 C 119.957031 147.804688 123.792969 151.058594 123.96875 155.984375 L 123.96875 163.839844 L 96.796875 163.839844 C 94.929688 161.324219 92.789062 159.0625 90.378906 157.058594 Z M 90.378906 155.984375 " fill-opacity="1" fill-rule="evenodd"/></g><g clip-path="url(#250f0305c0)"><path fill="#2e3760" d="M 107.175781 128.511719 C 107.761719 128.511719 108.339844 128.566406 108.910156 128.679688 C 109.480469 128.792969 110.035156 128.960938 110.574219 129.1875 C 111.113281 129.410156 111.625 129.683594 112.109375 130.007812 C 112.597656 130.332031 113.042969 130.699219 113.457031 131.109375 C 113.867188 131.523438 114.238281 131.972656 114.5625 132.457031 C 114.886719 132.941406 115.160156 133.453125 115.382812 133.992188 C 115.605469 134.53125 115.773438 135.085938 115.886719 135.65625 C 116 136.230469 116.058594 136.808594 116.058594 137.390625 C 116.058594 137.972656 116 138.550781 115.886719 139.121094 C 115.773438 139.695312 115.605469 140.25 115.382812 140.789062 C 115.160156 141.328125 114.886719 141.839844 114.5625 142.324219 C 114.238281 142.808594 113.867188 143.257812 113.457031 143.667969 C 113.042969 144.082031 112.597656 144.449219 112.109375 144.773438 C 111.625 145.097656 111.113281 145.371094 110.574219 145.59375 C 110.035156 145.816406 109.480469 145.988281 108.910156 146.101562 C 108.339844 146.214844 107.761719 146.269531 107.175781 146.269531 C 106.59375 146.269531 106.015625 146.214844 105.445312 146.101562 C 104.871094 145.988281 104.316406 145.816406 103.777344 145.59375 C 103.242188 145.371094 102.730469 145.097656 102.242188 144.773438 C 101.757812 144.449219 101.308594 144.082031 100.898438 143.667969 C 100.484375 143.257812 100.117188 142.808594 99.792969 142.324219 C 99.46875 141.839844 99.195312 141.328125 98.972656 140.789062 C 98.75 140.25 98.582031 139.695312 98.46875 139.121094 C 98.355469 138.550781 98.296875 137.972656 98.296875 137.390625 C 98.296875 136.808594 98.355469 136.230469 98.46875 135.65625 C 98.582031 135.085938 98.75 134.53125 98.972656 133.992188 C 99.195312 133.453125 99.46875 132.941406 99.792969 132.457031 C 100.117188 131.972656 100.484375 131.523438 100.898438 131.109375 C 101.308594 130.699219 101.757812 130.332031 102.242188 130.007812 C 102.726562 129.683594 103.242188 129.410156 103.777344 129.1875 C 104.316406 128.960938 104.871094 128.792969 105.445312 128.679688 C 106.015625 128.566406 106.59375 128.511719 107.175781 128.511719 Z M 107.175781 128.511719 " fill-opacity="1" fill-rule="evenodd"/></g><g clip-path="url(#b3167c8c48)"><path fill="#2e3760" d="M 6.222656 155.984375 C 6.398438 151.058594 10.230469 147.804688 15.246094 146.203125 C 15.777344 146.671875 16.347656 147.089844 16.953125 147.457031 C 17.5625 147.824219 18.199219 148.132812 18.863281 148.382812 C 19.527344 148.636719 20.207031 148.824219 20.90625 148.953125 C 21.601562 149.078125 22.308594 149.144531 23.015625 149.144531 C 23.726562 149.144531 24.429688 149.078125 25.128906 148.953125 C 25.828125 148.824219 26.507812 148.636719 27.171875 148.382812 C 27.835938 148.132812 28.472656 147.824219 29.078125 147.457031 C 29.6875 147.089844 30.257812 146.671875 30.789062 146.203125 C 35.800781 147.804688 39.632812 151.058594 39.8125 155.984375 L 39.8125 157.058594 C 37.402344 159.0625 35.261719 161.324219 33.394531 163.839844 L 6.222656 163.839844 Z M 6.222656 155.984375 " fill-opacity="1" fill-rule="evenodd"/></g><g clip-path="url(#b8c9c6f544)"><path fill="#2e3760" d="M 23.011719 128.511719 C 23.597656 128.511719 24.175781 128.566406 24.746094 128.679688 C 25.316406 128.792969 25.871094 128.960938 26.410156 129.1875 C 26.949219 129.410156 27.460938 129.683594 27.945312 130.007812 C 28.433594 130.332031 28.878906 130.699219 29.292969 131.109375 C 29.707031 131.523438 30.074219 131.972656 30.398438 132.457031 C 30.722656 132.941406 30.996094 133.453125 31.21875 133.992188 C 31.441406 134.53125 31.609375 135.085938 31.722656 135.65625 C 31.835938 136.230469 31.894531 136.808594 31.894531 137.390625 C 31.894531 137.972656 31.835938 138.550781 31.722656 139.121094 C 31.609375 139.695312 31.441406 140.25 31.21875 140.789062 C 30.996094 141.328125 30.722656 141.839844 30.398438 142.324219 C 30.074219 142.808594 29.707031 143.257812 29.292969 143.667969 C 28.878906 144.082031 28.433594 144.449219 27.945312 144.773438 C 27.460938 145.097656 26.949219 145.371094 26.410156 145.59375 C 25.875 145.816406 25.316406 145.988281 24.746094 146.101562 C 24.175781 146.214844 23.597656 146.269531 23.011719 146.269531 C 22.429688 146.269531 21.851562 146.214844 21.28125 146.101562 C 20.710938 145.988281 20.152344 145.816406 19.613281 145.59375 C 19.078125 145.371094 18.566406 145.097656 18.078125 144.773438 C 17.59375 144.449219 17.144531 144.082031 16.734375 143.667969 C 16.320312 143.257812 15.953125 142.808594 15.628906 142.324219 C 15.304688 141.839844 15.03125 141.328125 14.808594 140.789062 C 14.585938 140.25 14.417969 139.695312 14.304688 139.121094 C 14.191406 138.550781 14.132812 137.972656 14.132812 137.390625 C 14.132812 136.808594 14.191406 136.230469 14.304688 135.65625 C 14.417969 135.085938 14.585938 134.53125 14.808594 133.992188 C 15.03125 133.453125 15.304688 132.941406 15.628906 132.457031 C 15.953125 131.972656 16.320312 131.523438 16.734375 131.109375 C 17.144531 130.699219 17.59375 130.332031 18.078125 130.007812 C 18.5625 129.683594 19.074219 129.410156 19.613281 129.1875 C 20.152344 128.960938 20.707031 128.792969 21.28125 128.679688 C 21.851562 128.566406 22.429688 128.511719 23.011719 128.511719 Z M 23.011719 128.511719 " fill-opacity="1" fill-rule="evenodd"/></g><g clip-path="url(#52eb6303cf)"><path fill="#2e3760" d="M 104.492188 190.042969 C 105.402344 190.257812 106.328125 190.359375 107.265625 190.355469 C 108.203125 190.347656 109.128906 190.230469 110.039062 190 C 110.945312 189.773438 111.816406 189.441406 112.644531 189.003906 C 113.476562 188.566406 114.242188 188.039062 114.945312 187.417969 C 119.957031 189.011719 123.792969 192.273438 123.96875 197.191406 L 123.96875 205.046875 L 100.421875 205.046875 C 102.785156 200.320312 104.140625 195.316406 104.492188 190.042969 Z M 104.492188 190.042969 " fill-opacity="1" fill-rule="evenodd"/></g><path fill="#2e3760" d="M 107.175781 169.722656 C 107.816406 169.722656 108.449219 169.792969 109.070312 169.929688 C 109.695312 170.0625 110.296875 170.265625 110.878906 170.53125 C 111.457031 170.796875 112.003906 171.121094 112.515625 171.507812 C 113.023438 171.890625 113.488281 172.324219 113.90625 172.808594 C 114.320312 173.292969 114.683594 173.816406 114.988281 174.375 C 115.289062 174.9375 115.53125 175.527344 115.707031 176.140625 C 115.886719 176.753906 115.996094 177.378906 116.039062 178.015625 C 116.082031 178.652344 116.054688 179.285156 115.960938 179.917969 C 115.867188 180.550781 115.703125 181.164062 115.476562 181.761719 C 115.25 182.359375 114.964844 182.925781 114.613281 183.457031 C 114.265625 183.992188 113.863281 184.484375 113.40625 184.933594 C 112.953125 185.382812 112.457031 185.777344 111.914062 186.117188 C 111.375 186.457031 110.804688 186.738281 110.203125 186.953125 C 109.605469 187.171875 108.988281 187.324219 108.355469 187.40625 C 107.722656 187.492188 107.085938 187.507812 106.449219 187.457031 C 105.8125 187.402344 105.191406 187.285156 104.578125 187.097656 C 104.539062 181.800781 103.480469 176.71875 101.402344 171.847656 C 102.207031 171.160156 103.109375 170.632812 104.101562 170.269531 C 105.09375 169.902344 106.121094 169.722656 107.175781 169.722656 Z M 107.175781 169.722656 " fill-opacity="1" fill-rule="evenodd"/><g clip-path="url(#43872d538e)"><path fill="#2e3760" d="M 6.222656 197.191406 C 6.398438 192.273438 10.230469 189.011719 15.246094 187.417969 C 15.949219 188.039062 16.714844 188.566406 17.542969 189.003906 C 18.375 189.441406 19.242188 189.773438 20.152344 190 C 21.0625 190.230469 21.988281 190.347656 22.925781 190.355469 C 23.863281 190.359375 24.789062 190.257812 25.699219 190.042969 C 26.050781 195.316406 27.40625 200.320312 29.769531 205.046875 L 6.222656 205.046875 Z M 6.222656 197.191406 " fill-opacity="1" fill-rule="evenodd"/></g><path fill="#2e3760" d="M 23.011719 169.722656 C 24.070312 169.722656 25.097656 169.902344 26.089844 170.269531 C 27.082031 170.632812 27.980469 171.160156 28.785156 171.847656 C 26.710938 176.71875 25.652344 181.800781 25.613281 187.097656 C 25 187.285156 24.378906 187.402344 23.742188 187.457031 C 23.105469 187.507812 22.46875 187.492188 21.835938 187.40625 C 21.203125 187.324219 20.585938 187.171875 19.988281 186.953125 C 19.386719 186.738281 18.816406 186.457031 18.277344 186.117188 C 17.734375 185.777344 17.238281 185.382812 16.78125 184.933594 C 16.328125 184.484375 15.925781 183.992188 15.578125 183.457031 C 15.226562 182.925781 14.941406 182.359375 14.710938 181.761719 C 14.484375 181.164062 14.324219 180.550781 14.230469 179.917969 C 14.136719 179.285156 14.109375 178.652344 14.152344 178.015625 C 14.195312 177.378906 14.304688 176.753906 14.480469 176.140625 C 14.660156 175.527344 14.898438 174.9375 15.203125 174.375 C 15.507812 173.816406 15.867188 173.292969 16.285156 172.808594 C 16.703125 172.324219 17.164062 171.890625 17.675781 171.507812 C 18.1875 171.121094 18.730469 170.796875 19.3125 170.53125 C 19.894531 170.265625 20.496094 170.0625 21.121094 169.929688 C 21.742188 169.792969 22.375 169.722656 23.011719 169.722656 Z M 23.011719 169.722656 " fill-opacity="1" fill-rule="evenodd"/><path fill="#2e3760" d="M 106.933594 222.613281 L 96.125 211.804688 C 94.183594 214.269531 91.980469 216.472656 89.519531 218.414062 L 100.324219 229.21875 Z M 106.933594 222.613281 " fill-opacity="1" fill-rule="evenodd"/><path fill="#ff695a" d="M 115.332031 244.234375 L 121.945312 237.625 C 122.15625 237.414062 122.320312 237.167969 122.433594 236.890625 C 122.546875 236.617188 122.601562 236.328125 122.601562 236.027344 C 122.601562 235.730469 122.546875 235.441406 122.433594 235.164062 C 122.320312 234.886719 122.15625 234.644531 121.945312 234.429688 L 112.15625 224.648438 C 111.945312 224.4375 111.699219 224.273438 111.425781 224.160156 C 111.148438 224.042969 110.859375 223.988281 110.558594 223.988281 C 110.257812 223.988281 109.972656 224.042969 109.695312 224.160156 C 109.417969 224.273438 109.171875 224.4375 108.960938 224.648438 L 102.355469 231.253906 C 102.144531 231.46875 101.980469 231.714844 101.867188 231.988281 C 101.753906 232.265625 101.699219 232.554688 101.699219 232.851562 C 101.699219 233.152344 101.753906 233.441406 101.867188 233.71875 C 101.980469 233.992188 102.144531 234.238281 102.355469 234.449219 L 112.144531 244.234375 C 112.355469 244.445312 112.597656 244.605469 112.875 244.71875 C 113.152344 244.832031 113.4375 244.890625 113.738281 244.890625 C 114.035156 244.890625 114.324219 244.832031 114.601562 244.71875 C 114.875 244.605469 115.121094 244.445312 115.332031 244.234375 Z M 115.332031 244.234375 " fill-opacity="1" fill-rule="evenodd"/><path fill="#2e3760" d="M 39.207031 161.496094 C 40.054688 160.648438 40.941406 159.84375 41.871094 159.082031 C 42.796875 158.320312 43.757812 157.609375 44.753906 156.941406 C 45.753906 156.273438 46.78125 155.660156 47.835938 155.09375 C 48.894531 154.527344 49.976562 154.015625 51.085938 153.558594 C 52.195312 153.097656 53.320312 152.695312 54.46875 152.347656 C 55.617188 152 56.777344 151.710938 57.953125 151.476562 C 59.128906 151.242188 60.316406 151.066406 61.507812 150.949219 C 62.703125 150.832031 63.898438 150.773438 65.097656 150.773438 C 66.296875 150.773438 67.492188 150.832031 68.6875 150.949219 C 69.878906 151.066406 71.0625 151.242188 72.238281 151.476562 C 73.414062 151.710938 74.578125 152 75.726562 152.347656 C 76.871094 152.695312 78 153.101562 79.109375 153.558594 C 80.214844 154.019531 81.296875 154.53125 82.355469 155.097656 C 83.414062 155.660156 84.441406 156.277344 85.4375 156.941406 C 86.433594 157.609375 87.398438 158.324219 88.324219 159.082031 C 89.25 159.84375 90.136719 160.648438 90.984375 161.496094 C 91.832031 162.34375 92.636719 163.230469 93.398438 164.160156 C 94.160156 165.085938 94.871094 166.046875 95.539062 167.046875 C 96.207031 168.042969 96.820312 169.070312 97.386719 170.125 C 97.953125 171.183594 98.464844 172.265625 98.921875 173.375 C 99.382812 174.484375 99.785156 175.609375 100.132812 176.757812 C 100.480469 177.90625 100.773438 179.066406 101.003906 180.242188 C 101.238281 181.417969 101.414062 182.605469 101.53125 183.796875 C 101.652344 184.992188 101.710938 186.1875 101.710938 187.386719 C 101.710938 188.585938 101.652344 189.78125 101.53125 190.976562 C 101.414062 192.167969 101.238281 193.351562 101.007812 194.527344 C 100.773438 195.703125 100.480469 196.867188 100.132812 198.015625 C 99.785156 199.160156 99.382812 200.289062 98.921875 201.398438 C 98.464844 202.503906 97.953125 203.585938 97.386719 204.644531 C 96.820312 205.703125 96.207031 206.730469 95.539062 207.726562 C 94.871094 208.722656 94.160156 209.6875 93.398438 210.613281 C 92.636719 211.539062 91.832031 212.425781 90.984375 213.277344 C 90.136719 214.125 89.25 214.929688 88.324219 215.6875 C 87.398438 216.449219 86.433594 217.164062 85.4375 217.828125 C 84.441406 218.496094 83.414062 219.109375 82.355469 219.675781 C 81.296875 220.242188 80.214844 220.753906 79.109375 221.210938 C 78 221.671875 76.871094 222.074219 75.726562 222.421875 C 74.578125 222.769531 73.414062 223.0625 72.238281 223.296875 C 71.0625 223.53125 69.878906 223.707031 68.6875 223.824219 C 67.492188 223.941406 66.296875 224 65.097656 224 C 63.898438 224 62.703125 223.941406 61.507812 223.824219 C 60.316406 223.707031 59.128906 223.53125 57.953125 223.296875 C 56.777344 223.0625 55.617188 222.773438 54.46875 222.425781 C 53.320312 222.074219 52.195312 221.671875 51.085938 221.214844 C 49.976562 220.753906 48.894531 220.242188 47.835938 219.675781 C 46.78125 219.113281 45.753906 218.496094 44.753906 217.832031 C 43.757812 217.164062 42.796875 216.449219 41.871094 215.691406 C 40.941406 214.929688 40.054688 214.125 39.207031 213.277344 C 38.359375 212.429688 37.554688 211.542969 36.792969 210.617188 C 36.03125 209.6875 35.316406 208.726562 34.652344 207.730469 C 33.984375 206.734375 33.367188 205.707031 32.804688 204.648438 C 32.238281 203.589844 31.726562 202.507812 31.265625 201.398438 C 30.808594 200.292969 30.402344 199.164062 30.054688 198.015625 C 29.707031 196.867188 29.414062 195.707031 29.183594 194.53125 C 28.949219 193.355469 28.773438 192.167969 28.65625 190.976562 C 28.535156 189.78125 28.476562 188.585938 28.476562 187.386719 C 28.476562 186.1875 28.535156 184.992188 28.65625 183.796875 C 28.773438 182.601562 28.949219 181.417969 29.183594 180.242188 C 29.414062 179.066406 29.707031 177.902344 30.054688 176.757812 C 30.402344 175.609375 30.808594 174.480469 31.265625 173.371094 C 31.726562 172.265625 32.238281 171.183594 32.804688 170.125 C 33.367188 169.066406 33.984375 168.039062 34.652344 167.042969 C 35.316406 166.046875 36.03125 165.082031 36.792969 164.15625 C 37.554688 163.230469 38.359375 162.34375 39.207031 161.496094 Z M 42.699219 164.988281 C 43.433594 164.253906 44.203125 163.558594 45.003906 162.902344 C 45.804688 162.242188 46.636719 161.625 47.5 161.050781 C 48.363281 160.472656 49.25 159.941406 50.167969 159.453125 C 51.082031 158.964844 52.019531 158.519531 52.976562 158.125 C 53.933594 157.726562 54.910156 157.378906 55.902344 157.078125 C 56.894531 156.777344 57.902344 156.523438 58.917969 156.320312 C 59.933594 156.117188 60.960938 155.96875 61.992188 155.867188 C 63.023438 155.765625 64.058594 155.714844 65.097656 155.714844 C 66.132812 155.714844 67.167969 155.765625 68.203125 155.867188 C 69.234375 155.96875 70.257812 156.121094 71.277344 156.320312 C 72.292969 156.523438 73.296875 156.777344 74.289062 157.078125 C 75.285156 157.378906 76.257812 157.726562 77.21875 158.125 C 78.175781 158.523438 79.113281 158.964844 80.027344 159.453125 C 80.941406 159.941406 81.832031 160.476562 82.691406 161.050781 C 83.554688 161.628906 84.386719 162.246094 85.1875 162.902344 C 85.992188 163.5625 86.757812 164.257812 87.492188 164.992188 C 88.226562 165.722656 88.921875 166.492188 89.578125 167.292969 C 90.238281 168.09375 90.855469 168.925781 91.429688 169.789062 C 92.007812 170.652344 92.539062 171.542969 93.027344 172.457031 C 93.515625 173.371094 93.960938 174.308594 94.359375 175.265625 C 94.753906 176.222656 95.101562 177.199219 95.40625 178.191406 C 95.707031 179.183594 95.957031 180.191406 96.160156 181.207031 C 96.363281 182.222656 96.515625 183.25 96.617188 184.28125 C 96.71875 185.3125 96.769531 186.347656 96.769531 187.386719 C 96.769531 188.421875 96.71875 189.457031 96.617188 190.492188 C 96.515625 191.523438 96.363281 192.546875 96.160156 193.566406 C 95.957031 194.582031 95.707031 195.585938 95.40625 196.578125 C 95.101562 197.574219 94.753906 198.546875 94.359375 199.507812 C 93.960938 200.464844 93.515625 201.402344 93.027344 202.316406 C 92.539062 203.230469 92.007812 204.121094 91.429688 204.980469 C 90.855469 205.84375 90.238281 206.675781 89.578125 207.480469 C 88.921875 208.28125 88.226562 209.046875 87.492188 209.78125 C 86.757812 210.515625 85.992188 211.210938 85.1875 211.867188 C 84.386719 212.527344 83.554688 213.144531 82.691406 213.71875 C 81.832031 214.296875 80.941406 214.828125 80.027344 215.320312 C 79.113281 215.808594 78.175781 216.25 77.21875 216.648438 C 76.257812 217.042969 75.285156 217.394531 74.289062 217.695312 C 73.296875 217.996094 72.292969 218.246094 71.277344 218.449219 C 70.257812 218.652344 69.234375 218.804688 68.203125 218.90625 C 67.167969 219.007812 66.132812 219.058594 65.097656 219.058594 C 64.058594 219.058594 63.023438 219.007812 61.992188 218.90625 C 60.960938 218.804688 59.933594 218.652344 58.917969 218.449219 C 57.902344 218.25 56.894531 217.996094 55.902344 217.695312 C 54.910156 217.394531 53.933594 217.046875 52.976562 216.648438 C 52.019531 216.25 51.082031 215.808594 50.167969 215.320312 C 49.25 214.832031 48.363281 214.296875 47.5 213.722656 C 46.636719 213.144531 45.804688 212.527344 45.003906 211.871094 C 44.203125 211.214844 43.433594 210.515625 42.699219 209.785156 C 41.96875 209.050781 41.269531 208.28125 40.613281 207.480469 C 39.953125 206.679688 39.335938 205.847656 38.761719 204.984375 C 38.183594 204.121094 37.652344 203.234375 37.164062 202.316406 C 36.671875 201.402344 36.230469 200.464844 35.832031 199.507812 C 35.4375 198.550781 35.085938 197.574219 34.785156 196.582031 C 34.484375 195.589844 34.234375 194.582031 34.03125 193.566406 C 33.828125 192.546875 33.675781 191.523438 33.574219 190.492188 C 33.472656 189.457031 33.421875 188.421875 33.421875 187.386719 C 33.421875 186.347656 33.472656 185.3125 33.574219 184.28125 C 33.675781 183.25 33.828125 182.222656 34.03125 181.207031 C 34.234375 180.1875 34.484375 179.183594 34.785156 178.191406 C 35.085938 177.199219 35.4375 176.222656 35.832031 175.265625 C 36.230469 174.304688 36.671875 173.367188 37.164062 172.453125 C 37.652344 171.539062 38.183594 170.652344 38.761719 169.789062 C 39.335938 168.925781 39.953125 168.09375 40.613281 167.292969 C 41.269531 166.488281 41.96875 165.722656 42.699219 164.988281 Z M 42.699219 164.988281 " fill-opacity="1" fill-rule="evenodd"/><path fill="#ff695a" d="M 44.730469 167.015625 C 45.328125 166.417969 45.949219 165.851562 46.597656 165.308594 C 47.246094 164.765625 47.914062 164.25 48.605469 163.769531 C 49.300781 163.285156 50.011719 162.832031 50.746094 162.410156 C 51.476562 161.992188 52.226562 161.601562 52.992188 161.25 C 53.757812 160.894531 54.539062 160.574219 55.335938 160.285156 C 56.128906 160 56.933594 159.75 57.75 159.535156 C 58.570312 159.320312 59.394531 159.140625 60.226562 158.996094 C 61.058594 158.855469 61.894531 158.75 62.738281 158.679688 C 63.578125 158.609375 64.421875 158.578125 65.265625 158.582031 C 66.113281 158.589844 66.953125 158.628906 67.796875 158.710938 C 68.636719 158.789062 69.472656 158.90625 70.304688 159.058594 C 71.132812 159.210938 71.957031 159.398438 72.769531 159.625 C 73.585938 159.847656 74.386719 160.109375 75.179688 160.40625 C 75.96875 160.699219 76.746094 161.03125 77.507812 161.394531 C 78.269531 161.757812 79.015625 162.15625 79.742188 162.585938 C 80.46875 163.015625 81.175781 163.476562 81.863281 163.964844 C 82.550781 164.457031 83.214844 164.980469 83.855469 165.527344 C 84.496094 166.078125 85.113281 166.65625 85.703125 167.261719 C 86.292969 167.863281 86.855469 168.492188 87.390625 169.148438 C 87.925781 169.800781 88.429688 170.476562 88.90625 171.175781 C 89.378906 171.875 89.824219 172.589844 90.238281 173.328125 C 90.648438 174.066406 91.027344 174.820312 91.375 175.589844 C 91.71875 176.359375 92.03125 177.144531 92.308594 177.941406 C 92.585938 178.742188 92.828125 179.550781 93.03125 180.367188 C 93.238281 181.1875 93.40625 182.015625 93.542969 182.847656 C 93.675781 183.683594 93.769531 184.523438 93.828125 185.363281 C 93.890625 186.207031 93.910156 187.050781 93.898438 187.894531 C 93.882812 188.738281 93.828125 189.582031 93.742188 190.421875 C 93.652344 191.261719 93.527344 192.097656 93.363281 192.925781 C 93.203125 193.753906 93.003906 194.574219 92.769531 195.386719 C 92.535156 196.195312 92.265625 196.996094 91.960938 197.785156 C 91.65625 198.570312 91.316406 199.34375 90.941406 200.101562 C 88.261719 194.851562 82.917969 191.574219 77.332031 189.804688 C 77.976562 189.03125 78.542969 188.207031 79.03125 187.324219 C 79.519531 186.445312 79.921875 185.527344 80.234375 184.574219 C 80.550781 183.617188 80.769531 182.640625 80.898438 181.640625 C 81.027344 180.644531 81.0625 179.644531 81.003906 178.640625 C 80.941406 177.636719 80.789062 176.644531 80.539062 175.671875 C 80.292969 174.695312 79.953125 173.753906 79.527344 172.839844 C 79.101562 171.929688 78.59375 171.066406 78.003906 170.253906 C 77.414062 169.4375 76.753906 168.683594 76.019531 167.996094 C 75.285156 167.304688 74.496094 166.691406 73.648438 166.152344 C 72.796875 165.613281 71.90625 165.15625 70.972656 164.785156 C 70.035156 164.414062 69.074219 164.132812 68.085938 163.945312 C 67.097656 163.757812 66.101562 163.664062 65.09375 163.664062 C 64.089844 163.664062 63.09375 163.757812 62.105469 163.945312 C 61.117188 164.132812 60.15625 164.414062 59.21875 164.785156 C 58.285156 165.15625 57.390625 165.613281 56.542969 166.152344 C 55.695312 166.691406 54.902344 167.304688 54.171875 167.996094 C 53.4375 168.683594 52.777344 169.4375 52.1875 170.253906 C 51.597656 171.066406 51.089844 171.929688 50.664062 172.839844 C 50.234375 173.753906 49.898438 174.695312 49.652344 175.671875 C 49.402344 176.644531 49.25 177.636719 49.1875 178.640625 C 49.128906 179.644531 49.160156 180.644531 49.292969 181.640625 C 49.421875 182.640625 49.640625 183.617188 49.957031 184.574219 C 50.269531 185.527344 50.671875 186.445312 51.160156 187.324219 C 51.644531 188.207031 52.210938 189.03125 52.855469 189.804688 C 47.273438 191.574219 41.925781 194.851562 39.246094 200.101562 C 38.589844 198.761719 38.035156 197.378906 37.59375 195.949219 C 37.148438 194.523438 36.816406 193.070312 36.601562 191.59375 C 36.382812 190.113281 36.28125 188.628906 36.292969 187.132812 C 36.304688 185.640625 36.433594 184.15625 36.679688 182.679688 C 36.921875 181.207031 37.28125 179.757812 37.75 178.339844 C 38.21875 176.921875 38.796875 175.546875 39.476562 174.21875 C 40.160156 172.890625 40.945312 171.621094 41.824219 170.414062 C 42.703125 169.207031 43.671875 168.074219 44.730469 167.015625 Z M 44.730469 167.015625 " fill-opacity="1" fill-rule="evenodd"/><path fill="#ff695a" d="M 41.046875 203.238281 C 42.90625 197.597656 48.472656 193.890625 55.222656 192.105469 C 55.921875 192.65625 56.660156 193.144531 57.441406 193.574219 C 58.21875 194 59.03125 194.359375 59.871094 194.652344 C 60.710938 194.945312 61.570312 195.164062 62.445312 195.3125 C 63.324219 195.460938 64.207031 195.535156 65.09375 195.535156 C 65.984375 195.535156 66.867188 195.460938 67.746094 195.3125 C 68.621094 195.164062 69.480469 194.945312 70.320312 194.652344 C 71.160156 194.359375 71.96875 194 72.75 193.574219 C 73.53125 193.144531 74.269531 192.65625 74.964844 192.105469 C 81.714844 193.890625 87.285156 197.597656 89.144531 203.238281 C 79.132812 218.398438 57.667969 220.6875 44.730469 207.75 C 43.347656 206.371094 42.121094 204.867188 41.046875 203.238281 Z M 41.046875 203.238281 " fill-opacity="1" fill-rule="evenodd"/><path fill="#ff695a" d="M 65.09375 166.527344 C 65.953125 166.527344 66.804688 166.613281 67.644531 166.78125 C 68.484375 166.945312 69.304688 167.195312 70.09375 167.523438 C 70.886719 167.851562 71.640625 168.253906 72.355469 168.730469 C 73.066406 169.207031 73.726562 169.75 74.335938 170.355469 C 74.941406 170.960938 75.484375 171.621094 75.960938 172.335938 C 76.4375 173.046875 76.839844 173.800781 77.167969 174.59375 C 77.496094 175.386719 77.742188 176.203125 77.910156 177.046875 C 78.078125 177.886719 78.160156 178.738281 78.160156 179.59375 C 78.160156 180.453125 78.078125 181.300781 77.910156 182.144531 C 77.742188 182.984375 77.496094 183.800781 77.167969 184.59375 C 76.839844 185.386719 76.4375 186.140625 75.960938 186.855469 C 75.484375 187.566406 74.941406 188.226562 74.335938 188.832031 C 73.726562 189.441406 73.066406 189.980469 72.355469 190.457031 C 71.640625 190.933594 70.886719 191.335938 70.09375 191.667969 C 69.304688 191.996094 68.484375 192.242188 67.644531 192.410156 C 66.804688 192.578125 65.953125 192.660156 65.09375 192.660156 C 64.238281 192.660156 63.386719 192.578125 62.546875 192.410156 C 61.703125 192.242188 60.886719 191.996094 60.09375 191.667969 C 59.300781 191.335938 58.550781 190.933594 57.835938 190.457031 C 57.121094 189.980469 56.460938 189.441406 55.855469 188.832031 C 55.25 188.226562 54.707031 187.566406 54.230469 186.855469 C 53.753906 186.140625 53.351562 185.386719 53.023438 184.59375 C 52.695312 183.800781 52.449219 182.984375 52.28125 182.144531 C 52.113281 181.300781 52.027344 180.453125 52.027344 179.59375 C 52.027344 178.738281 52.113281 177.886719 52.28125 177.046875 C 52.445312 176.203125 52.695312 175.386719 53.023438 174.59375 C 53.351562 173.800781 53.753906 173.046875 54.230469 172.335938 C 54.707031 171.621094 55.25 170.960938 55.855469 170.355469 C 56.460938 169.746094 57.121094 169.207031 57.835938 168.730469 C 58.550781 168.253906 59.300781 167.851562 60.09375 167.523438 C 60.886719 167.195312 61.703125 166.945312 62.546875 166.777344 C 63.386719 166.613281 64.238281 166.527344 65.09375 166.527344 Z M 65.09375 166.527344 " fill-opacity="1" fill-rule="evenodd"/><g clip-path="url(#158eaa8799)"><path fill="#2e3760" d="M 6.222656 238.40625 C 6.398438 233.480469 10.230469 230.222656 15.246094 228.625 C 15.777344 229.09375 16.347656 229.511719 16.953125 229.878906 C 17.5625 230.246094 18.199219 230.554688 18.863281 230.804688 C 19.527344 231.054688 20.207031 231.246094 20.90625 231.371094 C 21.601562 231.5 22.308594 231.5625 23.015625 231.5625 C 23.726562 231.5625 24.429688 231.5 25.128906 231.371094 C 25.828125 231.246094 26.507812 231.054688 27.171875 230.804688 C 27.835938 230.554688 28.472656 230.246094 29.078125 229.878906 C 29.6875 229.511719 30.257812 229.09375 30.789062 228.625 C 35.800781 230.222656 39.632812 233.480469 39.8125 238.40625 L 39.8125 246.261719 L 6.222656 246.261719 Z M 6.222656 238.40625 " fill-opacity="1" fill-rule="evenodd"/></g><path fill="#2e3760" d="M 23.011719 210.929688 C 23.597656 210.929688 24.175781 210.988281 24.746094 211.101562 C 25.316406 211.214844 25.875 211.382812 26.410156 211.605469 C 26.949219 211.828125 27.460938 212.101562 27.945312 212.425781 C 28.433594 212.75 28.878906 213.117188 29.292969 213.53125 C 29.707031 213.945312 30.074219 214.390625 30.398438 214.878906 C 30.722656 215.363281 30.996094 215.875 31.21875 216.414062 C 31.441406 216.949219 31.609375 217.507812 31.722656 218.078125 C 31.835938 218.648438 31.894531 219.226562 31.894531 219.8125 C 31.894531 220.394531 31.835938 220.972656 31.722656 221.542969 C 31.609375 222.113281 31.441406 222.671875 31.21875 223.210938 C 30.996094 223.746094 30.722656 224.257812 30.398438 224.746094 C 30.074219 225.230469 29.707031 225.679688 29.292969 226.089844 C 28.878906 226.503906 28.433594 226.871094 27.945312 227.195312 C 27.460938 227.519531 26.949219 227.792969 26.410156 228.015625 C 25.875 228.238281 25.316406 228.40625 24.746094 228.519531 C 24.175781 228.632812 23.597656 228.691406 23.011719 228.691406 C 22.429688 228.691406 21.851562 228.632812 21.28125 228.519531 C 20.710938 228.40625 20.152344 228.238281 19.613281 228.015625 C 19.078125 227.792969 18.566406 227.519531 18.078125 227.195312 C 17.59375 226.871094 17.144531 226.503906 16.734375 226.089844 C 16.320312 225.679688 15.953125 225.230469 15.628906 224.746094 C 15.304688 224.257812 15.03125 223.746094 14.808594 223.210938 C 14.585938 222.671875 14.417969 222.113281 14.304688 221.542969 C 14.191406 220.972656 14.132812 220.394531 14.132812 219.8125 C 14.132812 219.226562 14.191406 218.648438 14.304688 218.078125 C 14.417969 217.507812 14.585938 216.949219 14.808594 216.414062 C 15.03125 215.875 15.304688 215.363281 15.628906 214.878906 C 15.953125 214.390625 16.320312 213.945312 16.734375 213.53125 C 17.144531 213.117188 17.59375 212.75 18.078125 212.425781 C 18.5625 212.101562 19.074219 211.828125 19.613281 211.605469 C 20.152344 211.382812 20.707031 211.214844 21.28125 211.101562 C 21.851562 210.988281 22.429688 210.929688 23.011719 210.929688 Z M 23.011719 210.929688 " fill-opacity="1" fill-rule="evenodd"/><path fill="#ff695a" d="M 66.535156 240.652344 C 66.53125 240.84375 66.496094 241.023438 66.421875 241.199219 C 66.351562 241.375 66.246094 241.53125 66.109375 241.667969 C 65.976562 241.800781 65.820312 241.902344 65.644531 241.976562 C 65.46875 242.050781 65.285156 242.085938 65.09375 242.085938 C 64.90625 242.085938 64.722656 242.050781 64.546875 241.976562 C 64.371094 241.902344 64.214844 241.800781 64.078125 241.667969 C 63.945312 241.53125 63.839844 241.375 63.769531 241.199219 C 63.695312 241.023438 63.65625 240.84375 63.65625 240.652344 L 63.65625 230.945312 C 63.65625 230.753906 63.695312 230.570312 63.769531 230.394531 C 63.839844 230.21875 63.945312 230.0625 64.078125 229.929688 C 64.214844 229.792969 64.371094 229.691406 64.546875 229.617188 C 64.722656 229.546875 64.90625 229.507812 65.09375 229.507812 C 65.285156 229.507812 65.46875 229.546875 65.644531 229.617188 C 65.820312 229.691406 65.976562 229.792969 66.109375 229.929688 C 66.246094 230.0625 66.351562 230.21875 66.421875 230.394531 C 66.496094 230.570312 66.53125 230.753906 66.535156 230.945312 Z M 49.585938 136.34375 C 49.539062 136.160156 49.523438 135.976562 49.550781 135.789062 C 49.574219 135.597656 49.632812 135.421875 49.730469 135.257812 C 49.824219 135.09375 49.949219 134.953125 50.097656 134.835938 C 50.25 134.71875 50.417969 134.636719 50.601562 134.589844 C 50.785156 134.539062 50.96875 134.527344 51.160156 134.554688 C 51.347656 134.578125 51.523438 134.636719 51.6875 134.734375 C 51.851562 134.828125 51.992188 134.953125 52.109375 135.105469 C 52.222656 135.253906 52.304688 135.421875 52.355469 135.605469 L 54.871094 144.988281 C 54.921875 145.171875 54.933594 145.359375 54.910156 145.546875 C 54.882812 145.734375 54.824219 145.910156 54.730469 146.078125 C 54.632812 146.242188 54.511719 146.382812 54.359375 146.496094 C 54.210938 146.613281 54.042969 146.695312 53.859375 146.746094 C 53.675781 146.792969 53.488281 146.804688 53.300781 146.78125 C 53.109375 146.753906 52.933594 146.695312 52.769531 146.601562 C 52.605469 146.503906 52.464844 146.382812 52.351562 146.230469 C 52.234375 146.078125 52.152344 145.910156 52.105469 145.726562 Z M 63.65625 134.113281 C 63.65625 133.921875 63.695312 133.742188 63.769531 133.566406 C 63.84375 133.390625 63.945312 133.234375 64.082031 133.101562 C 64.214844 132.96875 64.371094 132.863281 64.546875 132.792969 C 64.722656 132.71875 64.90625 132.683594 65.09375 132.683594 C 65.285156 132.683594 65.46875 132.71875 65.644531 132.792969 C 65.820312 132.863281 65.976562 132.96875 66.109375 133.101562 C 66.246094 133.234375 66.347656 133.390625 66.421875 133.566406 C 66.496094 133.742188 66.53125 133.921875 66.535156 134.113281 L 66.535156 143.828125 C 66.535156 144.019531 66.5 144.203125 66.425781 144.378906 C 66.351562 144.558594 66.25 144.710938 66.113281 144.847656 C 65.980469 144.984375 65.824219 145.085938 65.648438 145.160156 C 65.46875 145.234375 65.285156 145.269531 65.09375 145.269531 C 64.90625 145.269531 64.71875 145.234375 64.542969 145.160156 C 64.367188 145.085938 64.210938 144.984375 64.078125 144.847656 C 63.941406 144.710938 63.839844 144.558594 63.765625 144.378906 C 63.691406 144.203125 63.65625 144.019531 63.65625 143.828125 Z M 77.835938 135.605469 C 77.886719 135.421875 77.96875 135.253906 78.082031 135.105469 C 78.199219 134.953125 78.335938 134.828125 78.503906 134.734375 C 78.667969 134.640625 78.84375 134.578125 79.03125 134.554688 C 79.21875 134.527344 79.40625 134.539062 79.589844 134.589844 C 79.773438 134.640625 79.941406 134.722656 80.09375 134.835938 C 80.242188 134.953125 80.367188 135.09375 80.460938 135.257812 C 80.554688 135.421875 80.617188 135.597656 80.640625 135.789062 C 80.664062 135.976562 80.652344 136.160156 80.605469 136.34375 L 78.085938 145.726562 C 78.039062 145.910156 77.957031 146.078125 77.839844 146.230469 C 77.726562 146.382812 77.585938 146.503906 77.421875 146.601562 C 77.257812 146.695312 77.078125 146.757812 76.890625 146.78125 C 76.703125 146.808594 76.515625 146.792969 76.332031 146.746094 C 76.148438 146.695312 75.980469 146.613281 75.832031 146.5 C 75.679688 146.382812 75.554688 146.242188 75.460938 146.078125 C 75.367188 145.914062 75.304688 145.734375 75.28125 145.546875 C 75.257812 145.359375 75.269531 145.171875 75.320312 144.988281 Z M 52.355469 239.164062 C 52.304688 239.351562 52.222656 239.519531 52.109375 239.667969 C 51.992188 239.820312 51.851562 239.945312 51.6875 240.039062 C 51.523438 240.136719 51.347656 240.195312 51.160156 240.222656 C 50.96875 240.246094 50.785156 240.234375 50.601562 240.183594 C 50.414062 240.136719 50.25 240.054688 50.097656 239.9375 C 49.945312 239.820312 49.824219 239.679688 49.726562 239.515625 C 49.632812 239.351562 49.574219 239.175781 49.550781 238.984375 C 49.523438 238.796875 49.535156 238.609375 49.585938 238.425781 L 52.105469 229.042969 C 52.152344 228.859375 52.234375 228.691406 52.351562 228.542969 C 52.464844 228.390625 52.605469 228.269531 52.769531 228.171875 C 52.933594 228.078125 53.113281 228.019531 53.300781 227.992188 C 53.488281 227.96875 53.675781 227.980469 53.859375 228.03125 C 54.039062 228.078125 54.207031 228.160156 54.359375 228.277344 C 54.507812 228.390625 54.632812 228.53125 54.726562 228.695312 C 54.824219 228.859375 54.882812 229.039062 54.90625 229.226562 C 54.933594 229.414062 54.921875 229.601562 54.871094 229.785156 Z M 80.605469 238.425781 C 80.652344 238.609375 80.664062 238.796875 80.640625 238.984375 C 80.617188 239.171875 80.558594 239.351562 80.460938 239.515625 C 80.367188 239.679688 80.242188 239.820312 80.09375 239.9375 C 79.941406 240.050781 79.773438 240.132812 79.589844 240.183594 C 79.40625 240.234375 79.21875 240.246094 79.03125 240.21875 C 78.84375 240.195312 78.667969 240.132812 78.503906 240.039062 C 78.335938 239.941406 78.199219 239.820312 78.082031 239.667969 C 77.964844 239.515625 77.882812 239.351562 77.835938 239.164062 L 75.320312 229.785156 C 75.269531 229.601562 75.257812 229.414062 75.28125 229.226562 C 75.308594 229.035156 75.367188 228.859375 75.460938 228.695312 C 75.558594 228.53125 75.679688 228.390625 75.832031 228.273438 C 75.980469 228.160156 76.148438 228.078125 76.332031 228.027344 C 76.515625 227.976562 76.703125 227.964844 76.890625 227.992188 C 77.078125 228.015625 77.257812 228.078125 77.421875 228.171875 C 77.585938 228.265625 77.726562 228.390625 77.839844 228.542969 C 77.957031 228.691406 78.039062 228.859375 78.085938 229.042969 Z M 80.605469 238.425781 " fill-opacity="1" fill-rule="nonzero"/><g fill="#ffffff" fill-opacity="1"><g transform="translate(125.232725, 221.609897)"><g><path d="M 14.4375 -23.765625 L 17.359375 -23.765625 C 20.222656 -23.765625 22.335938 -24.238281 23.703125 -25.1875 C 25.066406 -26.144531 25.75 -27.648438 25.75 -29.703125 C 25.75 -31.722656 25.050781 -33.160156 23.65625 -34.015625 C 22.269531 -34.878906 20.113281 -35.3125 17.1875 -35.3125 L 14.4375 -35.3125 Z M 14.4375 -16.390625 L 14.4375 0 L 5.375 0 L 5.375 -42.734375 L 17.828125 -42.734375 C 23.640625 -42.734375 27.9375 -41.675781 30.71875 -39.5625 C 33.507812 -37.445312 34.90625 -34.238281 34.90625 -29.9375 C 34.90625 -27.414062 34.210938 -25.175781 32.828125 -23.21875 C 31.441406 -21.257812 29.484375 -19.726562 26.953125 -18.625 C 33.378906 -9.007812 37.566406 -2.800781 39.515625 0 L 29.46875 0 L 19.265625 -16.390625 Z M 14.4375 -16.390625 "/></g></g></g><g fill="#ffffff" fill-opacity="1"><g transform="translate(164.749263, 221.609897)"><g><path d="M 18.203125 -26.953125 C 16.316406 -26.953125 14.835938 -26.351562 13.765625 -25.15625 C 12.691406 -23.957031 12.078125 -22.253906 11.921875 -20.046875 L 24.4375 -20.046875 C 24.394531 -22.253906 23.816406 -23.957031 22.703125 -25.15625 C 21.597656 -26.351562 20.097656 -26.953125 18.203125 -26.953125 Z M 19.46875 0.578125 C 14.207031 0.578125 10.09375 -0.867188 7.125 -3.765625 C 4.164062 -6.671875 2.6875 -10.785156 2.6875 -16.109375 C 2.6875 -21.578125 4.054688 -25.804688 6.796875 -28.796875 C 9.535156 -31.796875 13.320312 -33.296875 18.15625 -33.296875 C 22.769531 -33.296875 26.363281 -31.976562 28.9375 -29.34375 C 31.507812 -26.71875 32.796875 -23.082031 32.796875 -18.4375 L 32.796875 -14.125 L 11.71875 -14.125 C 11.8125 -11.582031 12.5625 -9.597656 13.96875 -8.171875 C 15.375 -6.753906 17.34375 -6.046875 19.875 -6.046875 C 21.84375 -6.046875 23.703125 -6.25 25.453125 -6.65625 C 27.210938 -7.070312 29.046875 -7.726562 30.953125 -8.625 L 30.953125 -1.71875 C 29.390625 -0.945312 27.722656 -0.375 25.953125 0 C 24.179688 0.382812 22.019531 0.578125 19.46875 0.578125 Z M 19.46875 0.578125 "/></g></g></g><g fill="#ffffff" fill-opacity="1"><g transform="translate(200.115395, 221.609897)"><g><path d="M 17.953125 0.578125 C 7.773438 0.578125 2.6875 -5 2.6875 -16.15625 C 2.6875 -21.71875 4.066406 -25.960938 6.828125 -28.890625 C 9.597656 -31.828125 13.566406 -33.296875 18.734375 -33.296875 C 22.515625 -33.296875 25.90625 -32.550781 28.90625 -31.0625 L 26.28125 -24.171875 C 24.875 -24.734375 23.566406 -25.191406 22.359375 -25.546875 C 21.148438 -25.910156 19.941406 -26.09375 18.734375 -26.09375 C 14.097656 -26.09375 11.78125 -22.800781 11.78125 -16.21875 C 11.78125 -9.832031 14.097656 -6.640625 18.734375 -6.640625 C 20.453125 -6.640625 22.039062 -6.867188 23.5 -7.328125 C 24.957031 -7.785156 26.421875 -8.5 27.890625 -9.46875 L 27.890625 -1.84375 C 26.441406 -0.925781 24.984375 -0.296875 23.515625 0.046875 C 22.046875 0.398438 20.191406 0.578125 17.953125 0.578125 Z M 17.953125 0.578125 "/></g></g></g><g fill="#ffffff" fill-opacity="1"><g transform="translate(230.892699, 221.609897)"><g><path d="M 22.921875 -33.296875 C 24.128906 -33.296875 25.128906 -33.207031 25.921875 -33.03125 L 25.25 -24.671875 C 24.53125 -24.859375 23.65625 -24.953125 22.625 -24.953125 C 19.78125 -24.953125 17.5625 -24.222656 15.96875 -22.765625 C 14.382812 -21.304688 13.59375 -19.257812 13.59375 -16.625 L 13.59375 0 L 4.671875 0 L 4.671875 -32.671875 L 11.421875 -32.671875 L 12.75 -27.1875 L 13.1875 -27.1875 C 14.195312 -29.019531 15.5625 -30.492188 17.28125 -31.609375 C 19.007812 -32.734375 20.890625 -33.296875 22.921875 -33.296875 Z M 22.921875 -33.296875 "/></g></g></g><g fill="#ffffff" fill-opacity="1"><g transform="translate(258.074933, 221.609897)"><g><path d="M 27.828125 0 L 26.625 -4.171875 L 26.15625 -4.171875 C 25.207031 -2.660156 23.851562 -1.488281 22.09375 -0.65625 C 20.34375 0.164062 18.347656 0.578125 16.109375 0.578125 C 12.265625 0.578125 9.367188 -0.445312 7.421875 -2.5 C 5.472656 -4.550781 4.5 -7.507812 4.5 -11.375 L 4.5 -32.671875 L 13.421875 -32.671875 L 13.421875 -13.59375 C 13.421875 -11.226562 13.835938 -9.457031 14.671875 -8.28125 C 15.503906 -7.101562 16.835938 -6.515625 18.671875 -6.515625 C 21.171875 -6.515625 22.972656 -7.347656 24.078125 -9.015625 C 25.191406 -10.679688 25.75 -13.441406 25.75 -17.296875 L 25.75 -32.671875 L 34.671875 -32.671875 L 34.671875 0 Z M 27.828125 0 "/></g></g></g><g fill="#ffffff" fill-opacity="1"><g transform="translate(297.416101, 221.609897)"><g><path d="M 18.4375 -6.515625 C 20 -6.515625 21.875 -6.859375 24.0625 -7.546875 L 24.0625 -0.90625 C 21.832031 0.0820312 19.101562 0.578125 15.875 0.578125 C 12.300781 0.578125 9.703125 -0.320312 8.078125 -2.125 C 6.453125 -3.925781 5.640625 -6.628906 5.640625 -10.234375 L 5.640625 -25.984375 L 1.375 -25.984375 L 1.375 -29.75 L 6.28125 -32.734375 L 8.859375 -39.640625 L 14.5625 -39.640625 L 14.5625 -32.671875 L 23.703125 -32.671875 L 23.703125 -25.984375 L 14.5625 -25.984375 L 14.5625 -10.234375 C 14.5625 -8.960938 14.914062 -8.023438 15.625 -7.421875 C 16.332031 -6.816406 17.269531 -6.515625 18.4375 -6.515625 Z M 18.4375 -6.515625 "/></g></g></g><g fill="#ffffff" fill-opacity="1"><g transform="translate(323.399978, 221.609897)"><g><path d="M 4.296875 -41.125 C 4.296875 -44.03125 5.910156 -45.484375 9.140625 -45.484375 C 12.378906 -45.484375 14 -44.03125 14 -41.125 C 14 -39.738281 13.59375 -38.660156 12.78125 -37.890625 C 11.976562 -37.117188 10.765625 -36.734375 9.140625 -36.734375 C 5.910156 -36.734375 4.296875 -38.195312 4.296875 -41.125 Z M 13.59375 0 L 4.671875 0 L 4.671875 -32.671875 L 13.59375 -32.671875 Z M 13.59375 0 "/></g></g></g><g fill="#ffffff" fill-opacity="1"><g transform="translate(341.667609, 221.609897)"><g><path d="M 11.375 -16.6875 L 0.84375 -32.671875 L 10.953125 -32.671875 L 17.296875 -22.265625 L 23.703125 -32.671875 L 33.8125 -32.671875 L 23.171875 -16.6875 L 34.3125 0 L 24.171875 0 L 17.296875 -11.1875 L 10.40625 0 L 0.296875 0 Z M 11.375 -16.6875 "/></g></g></g></svg>