<svg xmlns="http://www.w3.org/2000/svg" xmlns:xlink="http://www.w3.org/1999/xlink" width="500" zoomAndPan="magnify" viewBox="0 0 375 374.999991" height="500" preserveAspectRatio="xMidYMid meet" version="1.0"><defs><g/><clipPath id="6f38270333"><rect x="0" width="341" y="0" height="375"/></clipPath></defs><g transform="matrix(1, 0, 0, 1, 19, 0)"><g clip-path="url(#6f38270333)"><g fill="#efc75e" fill-opacity="1"><g transform="translate(119.168697, 294.266383)"><g><path d="M 179.5625 -2.71875 L 183.359375 -2.71875 L 183.359375 0 L 116.984375 0 L 116.984375 -2.71875 L 120.25 -2.71875 C 124.238281 -2.71875 127.320312 -4.53125 129.5 -8.15625 C 130.769531 -10.15625 131.40625 -12.0625 131.40625 -13.875 C 131.40625 -15.6875 130.953125 -17.5 130.046875 -19.3125 L 88.140625 -85.421875 L 35.640625 -8.4375 C 22.941406 10.0625 10.148438 23.394531 -2.734375 31.5625 C -13.066406 37.90625 -24.398438 41.078125 -36.734375 41.078125 C -39.992188 41.078125 -43.257812 40.894531 -46.53125 40.53125 L -46.53125 37.8125 C -33.832031 37.269531 -22.132812 32.285156 -11.4375 22.859375 C -2.363281 14.691406 6.25 4.894531 14.40625 -6.53125 C 16.039062 -8.519531 18.582031 -11.96875 22.03125 -16.875 L 79.703125 -98.484375 L 33.453125 -171.671875 C 29.097656 -178.015625 23.566406 -182.640625 16.859375 -185.546875 C 13.234375 -186.992188 9.609375 -187.71875 5.984375 -187.71875 L 2.171875 -187.71875 L 2.171875 -190.4375 L 68.015625 -190.4375 L 68.015625 -187.71875 L 64.75 -187.71875 C 62.382812 -187.71875 60.113281 -186.8125 57.9375 -185 C 53.40625 -181.195312 52.410156 -176.570312 54.953125 -171.125 L 91.671875 -113.453125 L 143.921875 -187.71875 C 155.890625 -204.59375 167.222656 -216.382812 177.921875 -223.09375 C 188.617188 -229.800781 200.226562 -233.15625 212.75 -233.15625 C 215.101562 -233.15625 217.457031 -233.066406 219.8125 -232.890625 L 219.8125 -230.171875 C 211.113281 -229.984375 203.5 -227.710938 196.96875 -223.359375 C 193.519531 -220.816406 190.523438 -218.640625 187.984375 -216.828125 C 185.453125 -215.015625 182.503906 -212.113281 179.140625 -208.125 C 175.785156 -204.132812 173.335938 -201.234375 171.796875 -199.421875 C 170.253906 -197.609375 167.804688 -194.390625 164.453125 -189.765625 C 161.097656 -185.140625 159.054688 -182.375 158.328125 -181.46875 L 99.5625 -100.9375 L 152.078125 -18.5 C 155.335938 -13.96875 159.367188 -10.203125 164.171875 -7.203125 C 168.984375 -4.210938 174.113281 -2.71875 179.5625 -2.71875 Z M 179.5625 -2.71875 "/></g></g></g><g fill="#efc75e" fill-opacity="1"><g transform="translate(1.656743, 240.724197)"><g><path d="M 257.921875 46.25 C 250.296875 48.25 243.535156 49.25 237.640625 49.25 C 231.742188 49.25 226.53125 48.882812 222 48.15625 C 217.46875 47.425781 212.613281 46.019531 207.4375 43.9375 C 202.269531 41.851562 197.421875 39.445312 192.890625 36.71875 C 188.359375 34 183.828125 30.644531 179.296875 26.65625 C 170.953125 19.945312 163.378906 12.691406 156.578125 4.890625 C 149.773438 -2.898438 136.664062 -17.539062 117.25 -39.03125 C 97.84375 -60.53125 84.96875 -74.816406 78.625 -81.890625 C 72.28125 -88.960938 67.382812 -92.679688 63.9375 -93.046875 L 63.9375 -95.765625 C 74.457031 -95.765625 81.484375 -95.988281 85.015625 -96.4375 C 88.554688 -96.894531 92.320312 -97.710938 96.3125 -98.890625 C 100.300781 -100.066406 103.65625 -101.65625 106.375 -103.65625 C 117.070312 -110.550781 122.421875 -121.976562 122.421875 -137.9375 C 122.421875 -151.175781 119.472656 -161.785156 113.578125 -169.765625 C 107.691406 -177.742188 99.394531 -181.828125 88.6875 -182.015625 L 54.953125 -182.015625 L 54.953125 -19.859375 C 54.953125 -15.328125 56.628906 -11.335938 59.984375 -7.890625 C 63.335938 -4.441406 67.46875 -2.71875 72.375 -2.71875 L 75.640625 -2.71875 L 75.90625 0 L 16.328125 0 L 16.328125 -2.71875 L 19.859375 -2.71875 C 24.390625 -2.71875 28.378906 -4.347656 31.828125 -7.609375 C 35.273438 -10.878906 37.085938 -14.875 37.265625 -19.59375 L 37.265625 -170.578125 C 37.085938 -175.296875 35.320312 -179.332031 31.96875 -182.6875 C 28.613281 -186.039062 24.578125 -187.71875 19.859375 -187.71875 L 16.328125 -187.71875 L 16.328125 -190.4375 L 89.78125 -190.4375 C 105.738281 -190.4375 118.566406 -185.945312 128.265625 -176.96875 C 137.972656 -168 142.828125 -156.117188 142.828125 -141.328125 C 142.828125 -126.546875 138.382812 -113.847656 129.5 -103.234375 C 120.613281 -92.628906 109.734375 -87.328125 96.859375 -87.328125 C 96.859375 -87.328125 96.765625 -87.328125 96.578125 -87.328125 C 102.742188 -80.796875 109.726562 -73.179688 117.53125 -64.484375 C 148.90625 -29.835938 169.035156 -8.070312 177.921875 0.8125 C 186.816406 9.695312 194.664062 16.992188 201.46875 22.703125 C 208.269531 28.421875 214.296875 32.644531 219.546875 35.375 C 230.253906 41.175781 240.867188 44.078125 251.390625 44.078125 C 253.566406 44.078125 255.742188 43.894531 257.921875 43.53125 Z M 257.921875 46.25 "/></g></g></g><path fill="#e1e1e1" d="M 54.125 144.113281 L 239.144531 144.113281 C 240.960938 144.113281 242.707031 144.835938 243.992188 146.121094 C 245.277344 147.40625 246 149.152344 246 150.96875 L 246 164.683594 C 246 166.5 245.277344 168.246094 243.992188 169.53125 C 242.707031 170.816406 240.960938 171.539062 239.144531 171.539062 L 54.125 171.539062 C 52.308594 171.539062 50.5625 170.816406 49.277344 169.53125 C 47.992188 168.246094 47.269531 166.5 47.269531 164.683594 L 47.269531 150.96875 C 47.269531 149.152344 47.992188 147.40625 49.277344 146.121094 C 50.5625 144.835938 52.308594 144.113281 54.125 144.113281 Z M 54.125 144.113281 " fill-opacity="1" fill-rule="nonzero"/><g fill="#efc75e" fill-opacity="1"><g transform="translate(60.663959, 162.966664)"><g><path d="M 10.875 -2.125 L 11.390625 -0.390625 C 11.160156 -0.222656 10.878906 -0.09375 10.546875 0 C 10.210938 0.101562 9.863281 0.15625 9.5 0.15625 C 8.21875 0.15625 7.210938 -0.410156 6.484375 -1.546875 L 4.71875 -4.25 C 4.53125 -4.539062 4.335938 -4.742188 4.140625 -4.859375 C 3.953125 -4.972656 3.742188 -5.03125 3.515625 -5.03125 L 3.4375 -5.03125 L 3.4375 0 L 1.25 0 L 1.25 -12.1875 L 5.046875 -12.1875 C 6.585938 -12.1875 7.753906 -11.863281 8.546875 -11.21875 C 9.347656 -10.582031 9.75 -9.703125 9.75 -8.578125 C 9.75 -7.898438 9.597656 -7.316406 9.296875 -6.828125 C 9.003906 -6.347656 8.597656 -5.960938 8.078125 -5.671875 C 7.566406 -5.390625 6.984375 -5.207031 6.328125 -5.125 C 6.671875 -4.945312 6.988281 -4.640625 7.28125 -4.203125 L 8.234375 -2.78125 C 8.484375 -2.414062 8.71875 -2.160156 8.9375 -2.015625 C 9.164062 -1.878906 9.453125 -1.8125 9.796875 -1.8125 C 10.191406 -1.8125 10.550781 -1.914062 10.875 -2.125 Z M 4.890625 -10.359375 L 3.4375 -10.359375 L 3.4375 -6.78125 L 4.78125 -6.78125 C 5.71875 -6.78125 6.410156 -6.921875 6.859375 -7.203125 C 7.304688 -7.492188 7.53125 -7.953125 7.53125 -8.578125 C 7.53125 -9.765625 6.648438 -10.359375 4.890625 -10.359375 Z M 4.890625 -10.359375 "/></g></g></g><g fill="#efc75e" fill-opacity="1"><g transform="translate(84.475177, 162.966664)"><g><path d="M 9.09375 -10.265625 L 3.4375 -10.265625 L 3.4375 -7.125 L 8.8125 -7.125 L 8.8125 -5.203125 L 3.4375 -5.203125 L 3.4375 -1.921875 L 9.296875 -1.921875 L 9.140625 0 L 1.25 0 L 1.25 -12.1875 L 9.09375 -12.1875 Z M 9.09375 -10.265625 "/></g></g></g><g fill="#efc75e" fill-opacity="1"><g transform="translate(107.223284, 162.966664)"><g><path d="M 11.578125 -2.375 C 11.097656 -1.5625 10.4375 -0.9375 9.59375 -0.5 C 8.75 -0.0625 7.800781 0.15625 6.75 0.15625 C 5.5 0.15625 4.425781 -0.0820312 3.53125 -0.5625 C 2.644531 -1.039062 1.960938 -1.726562 1.484375 -2.625 C 1.003906 -3.53125 0.765625 -4.601562 0.765625 -5.84375 C 0.765625 -7.132812 1.023438 -8.265625 1.546875 -9.234375 C 2.078125 -10.210938 2.8125 -10.976562 3.75 -11.53125 C 4.695312 -12.082031 5.785156 -12.359375 7.015625 -12.359375 C 8.066406 -12.359375 8.96875 -12.15625 9.71875 -11.75 C 10.46875 -11.351562 11.09375 -10.75 11.59375 -9.9375 L 9.875 -8.703125 C 9.570312 -9.273438 9.164062 -9.691406 8.65625 -9.953125 C 8.15625 -10.210938 7.601562 -10.34375 7 -10.34375 C 6.21875 -10.34375 5.53125 -10.15625 4.9375 -9.78125 C 4.34375 -9.40625 3.875 -8.878906 3.53125 -8.203125 C 3.195312 -7.535156 3.03125 -6.765625 3.03125 -5.890625 C 3.03125 -4.617188 3.359375 -3.628906 4.015625 -2.921875 C 4.679688 -2.210938 5.601562 -1.859375 6.78125 -1.859375 C 7.425781 -1.859375 8.023438 -2.003906 8.578125 -2.296875 C 9.128906 -2.597656 9.578125 -3.050781 9.921875 -3.65625 Z M 11.578125 -2.375 "/></g></g></g><g fill="#efc75e" fill-opacity="1"><g transform="translate(131.737519, 162.966664)"><g><path d="M 10.875 -2.125 L 11.390625 -0.390625 C 11.160156 -0.222656 10.878906 -0.09375 10.546875 0 C 10.210938 0.101562 9.863281 0.15625 9.5 0.15625 C 8.21875 0.15625 7.210938 -0.410156 6.484375 -1.546875 L 4.71875 -4.25 C 4.53125 -4.539062 4.335938 -4.742188 4.140625 -4.859375 C 3.953125 -4.972656 3.742188 -5.03125 3.515625 -5.03125 L 3.4375 -5.03125 L 3.4375 0 L 1.25 0 L 1.25 -12.1875 L 5.046875 -12.1875 C 6.585938 -12.1875 7.753906 -11.863281 8.546875 -11.21875 C 9.347656 -10.582031 9.75 -9.703125 9.75 -8.578125 C 9.75 -7.898438 9.597656 -7.316406 9.296875 -6.828125 C 9.003906 -6.347656 8.597656 -5.960938 8.078125 -5.671875 C 7.566406 -5.390625 6.984375 -5.207031 6.328125 -5.125 C 6.671875 -4.945312 6.988281 -4.640625 7.28125 -4.203125 L 8.234375 -2.78125 C 8.484375 -2.414062 8.71875 -2.160156 8.9375 -2.015625 C 9.164062 -1.878906 9.453125 -1.8125 9.796875 -1.8125 C 10.191406 -1.8125 10.550781 -1.914062 10.875 -2.125 Z M 4.890625 -10.359375 L 3.4375 -10.359375 L 3.4375 -6.78125 L 4.78125 -6.78125 C 5.71875 -6.78125 6.410156 -6.921875 6.859375 -7.203125 C 7.304688 -7.492188 7.53125 -7.953125 7.53125 -8.578125 C 7.53125 -9.765625 6.648438 -10.359375 4.890625 -10.359375 Z M 4.890625 -10.359375 "/></g></g></g><g fill="#efc75e" fill-opacity="1"><g transform="translate(155.548738, 162.966664)"><g><path d="M 9.34375 -12.1875 L 11.5625 -12.1875 L 11.578125 -5.703125 C 11.585938 -4.484375 11.390625 -3.4375 10.984375 -2.5625 C 10.578125 -1.6875 9.988281 -1.015625 9.21875 -0.546875 C 8.445312 -0.078125 7.519531 0.15625 6.4375 0.15625 C 4.695312 0.15625 3.390625 -0.28125 2.515625 -1.15625 C 1.640625 -2.03125 1.203125 -3.367188 1.203125 -5.171875 L 1.203125 -12.1875 L 3.4375 -12.1875 L 3.4375 -5.328125 C 3.4375 -4.109375 3.679688 -3.222656 4.171875 -2.671875 C 4.671875 -2.128906 5.414062 -1.859375 6.40625 -1.859375 C 7.394531 -1.859375 8.140625 -2.175781 8.640625 -2.8125 C 9.140625 -3.457031 9.382812 -4.453125 9.375 -5.796875 Z M 9.34375 -12.1875 "/></g></g></g><g fill="#efc75e" fill-opacity="1"><g transform="translate(181.383298, 162.966664)"><g><path d="M 10.09375 -12.1875 L 9.8125 -10.21875 L 6.03125 -10.21875 L 6.03125 0 L 3.8125 0 L 3.8125 -10.21875 L -0.109375 -10.21875 L -0.109375 -12.1875 Z M 10.09375 -12.1875 "/></g></g></g><g fill="#efc75e" fill-opacity="1"><g transform="translate(204.285717, 162.966664)"><g><path d="M 1.25 0 L 1.25 -12.1875 L 3.484375 -12.1875 L 3.484375 0 Z M 1.25 0 "/></g></g></g><g fill="#efc75e" fill-opacity="1"><g transform="translate(222.078343, 162.966664)"><g><path d="M 2.375 0 L -0.109375 0 L 4.015625 -6.171875 L 0.140625 -12.1875 L 2.65625 -12.1875 L 5.296875 -8.0625 L 7.953125 -12.1875 L 10.34375 -12.1875 L 6.453125 -6.28125 L 10.515625 0 L 7.953125 0 L 5.21875 -4.359375 Z M 2.375 0 "/></g></g></g></g></g></svg>